<?xml version="1.0" encoding="UTF-8" standalone="no"?>
<svg
   xmlns:dc="http://purl.org/dc/elements/1.1/"
   xmlns:cc="http://creativecommons.org/ns#"
   xmlns:rdf="http://www.w3.org/1999/02/22-rdf-syntax-ns#"
   xmlns:svg="http://www.w3.org/2000/svg"
   xmlns="http://www.w3.org/2000/svg"
   xmlns:xlink="http://www.w3.org/1999/xlink"
   version="1.1"
   width="359.77252"
   height="359.52255"
   viewBox="0 0 359.77252 359.52256"
   id="svg502">
  <metadata
     id="metadata506">
    <rdf:RDF>
      <cc:Work
         rdf:about="">
        <dc:format>image/svg+xml</dc:format>
        <dc:type
           rdf:resource="http://purl.org/dc/dcmitype/StillImage" />
        <dc:title></dc:title>
      </cc:Work>
    </rdf:RDF>
  </metadata>
  <defs
     id="defs4">
    <pattern
       xlink:href="#a"
       id="pattern4712"
       patternTransform="matrix(0.32989327,0,0,0.33067144,231.83797,142.43199)" />
    <pattern
       id="i"
       xlink:href="#mypat"
       patternTransform="matrix(.41246 0 0 .41246 -1968.4 -741.5)" />
    <pattern
       id="mypat"
       xlink:href="#g"
       patternTransform="matrix(0,0,0,0,-4940.2573407545,-1820.951944456)" />
    <pattern
       id="g"
       height="76.78"
       width="360"
       patternTransform="translate(10,151.5)"
       patternUnits="userSpaceOnUse">
      <path
         fill="#E10000"
         d="m .01 0 h 359.99 l -.01 38.39 h -359.99 z"
         id="path4" />
      <path
         fill="#FFFFFF"
         d="m .01 38.39 h 359.99 l -.01 38.39 h -359.99 z"
         id="path6" />
    </pattern>
    <pattern
       id="a"
       height="76.78"
       patternTransform="translate(10 151.5)"
       patternUnits="userSpaceOnUse"
       width="360">
      <path
         d="m.01 0h359.99l-.01 38.39h-359.99z"
         fill="#e10000"
         id="path2" />
      <path
         d="m.01 38.39h359.99l-.01 38.39h-359.99z"
         fill="#fff"
         id="path4-6" />
    </pattern>
    <pattern
       id="pattern90"
       height="76.78"
       patternTransform="translate(10 151.5)"
       patternUnits="userSpaceOnUse"
       width="360">
      <path
         d="m.01 0h359.99l-.01 38.39h-359.99z"
         fill="#e10000"
         id="path86-2" />
      <path
         d="m.01 38.39h359.99l-.01 38.39h-359.99z"
         fill="#fff"
         id="path88-2" />
    </pattern>
    <pattern
       id="pattern96"
       height="76.78"
       patternTransform="translate(10 151.5)"
       patternUnits="userSpaceOnUse"
       width="360">
      <path
         d="m.01 0h359.99l-.01 38.39h-359.99z"
         fill="#e10000"
         id="path92" />
      <path
         d="m.01 38.39h359.99l-.01 38.39h-359.99z"
         fill="#fff"
         id="path94-7" />
    </pattern>
  </defs>
  <g
     transform="translate(-118.76428,-1.5611495)"
     id="g432"
     style="fill:#87898b;stroke-width:1.33329999" />
  <g
     transform="translate(-118.76428,-1.5611495)"
     id="g375">
    <g
       id="g4973"
       transform="translate(0.97227178,0.08838835)">
      <path
         style="fill:#87898b;stroke:none;stroke-width:0.5"
         d="m 154.7,171.2 c -6.1,-0.2 -12.1,-0.4 -18.1,-0.4 L 298.67302,182.05884 169.5,244.2 c -2.8,-0.4 -5.5,-0.9 -8,-2.2 1,-2.7 1.9,-5.7 4.3,-7.6 3.1,-2.6 7.1,-4 10.8,-5.5 -1.5,-0.8 -3.1,-1.6 -4.4,-2.7 1.1,-7.5 9.8,-8.8 15.7,-11.1 l -4.76742,-0.21161 c -2,-0.2 -3.93258,-1.18839 -5.63258,-2.28839 1,-1.7 2.1,-3.3 3.2,-4.9 -4.7,0.5 -10.6,1.7 -14,-2.5 0.2,-1.7 1.7,-3 2.6,-4.5 -6.5,-0.4 -14.9,2.3 -19.4,-3.9 0.4,-3.1 3.8,-4.4 5.9,-6.3 -7.1,-0.2 -14.1,-0.2 -21.1,-0.1 -6.5,0.2 -13,-3.2 -16.6,-8.6 -0.9,-1.1 0.4,-2.4 1,-3.3 4.1,-5.2 11,-7.6 17.5,-7.7"
         id="path4955" />
      <path
         d="m 118.9,181.7 c 7.3,-0.4 14.7,-0.1 22,-0.2 33,-0.1 66.1,0.1 99.1,-0.1 0.1,1.1 58.65,-0.975 58.75,0.125 -34.9,1.9 -128.25,8.575 -163.15,8.275 -6.5,0.2 -12.6,-3.1 -16.7,-8.1 z"
         id="path276"
         style="fill:#ffffff;stroke:none;stroke-width:0.5" />
      <path
         d="m 151.1,197.2 c 52.804,-6.01366 94.72321,-10.27385 147.65,-15.675 -20.5,2.8 -99.55,13.775 -120.05,16.775 -6.9,1.1 -14,2.3 -21.1,1.8 -2.5,0 -4.5,-1.6 -6.5,-2.9 z"
         id="path286"
         style="fill:#ffffff;stroke:none;stroke-width:0.5" />
      <path
         d="m 181.5,202.9 c 19.6,-3.5 97.65,-17.975 117.25,-21.375 L 240.2,193.8 c -15,3.6 -30.1,6.7 -45.2,10.1 -6.9,1.3 -13.7,3.4 -20.7,3.6 -2.3,0.2 -4.4,-0.9 -6.4,-1.9 4.4,-1.2 9,-1.9 13.6,-2.7 z"
         id="path290"
         style="fill:#ffffff;stroke:none;stroke-width:0.5" />
      <path
         style="fill:#ffffff;stroke:none;stroke-width:0.5"
         d="M 173.50002,226.4 298.75,181.525 c -15.92987,6.39134 -100.79814,38.32315 -116.6548,44.9877 -2.72224,1.31506 -5.88372,0.99089 -8.59519,-0.1127 z"
         id="path378" />
      <path
         style="fill:#ffffff;stroke:none;stroke-width:0.5"
         d="M 298.75,181.525 C 281.11032,190.27782 195.98198,231.01995 178.39231,239.68616 173.75404,242.31988 168.36314,244.05718 163.2,242 Z"
         id="path384" />
      <path
         id="path4935"
         d="m 179.5,213 c 16.1825,-4.62891 103.0443,-27.2059 119.25,-31.475 l -94.4393,27.90161 c -6.45692,1.58371 -12.67102,4.34685 -19.29756,5.02435 C 182.9775,214.7768 181.24545,213.7768 179.5,213 Z"
         style="fill:#ffffff;stroke:none;stroke-width:0.5" />
    </g>
    <g
       id="g4989"
       transform="rotate(30,298.03184,187.58461)">
      <path
         id="path4975"
         d="m 154.7,171.2 c -6.1,-0.2 -12.1,-0.4 -18.1,-0.4 L 298.67302,182.05884 169.5,244.2 c -2.8,-0.4 -5.5,-0.9 -8,-2.2 1,-2.7 1.9,-5.7 4.3,-7.6 3.1,-2.6 7.1,-4 10.8,-5.5 -1.5,-0.8 -3.1,-1.6 -4.4,-2.7 1.1,-7.5 9.8,-8.8 15.7,-11.1 l -4.76742,-0.21161 c -2,-0.2 -3.93258,-1.18839 -5.63258,-2.28839 1,-1.7 2.1,-3.3 3.2,-4.9 -4.7,0.5 -10.6,1.7 -14,-2.5 0.2,-1.7 1.7,-3 2.6,-4.5 -6.5,-0.4 -14.9,2.3 -19.4,-3.9 0.4,-3.1 3.8,-4.4 5.9,-6.3 -7.1,-0.2 -14.1,-0.2 -21.1,-0.1 -6.5,0.2 -13,-3.2 -16.6,-8.6 -0.9,-1.1 0.4,-2.4 1,-3.3 4.1,-5.2 11,-7.6 17.5,-7.7"
         style="fill:#87898b;stroke:none;stroke-width:0.5" />
      <path
         style="fill:#ffffff;stroke:none;stroke-width:0.5"
         id="path4977"
         d="m 118.9,181.7 c 7.3,-0.4 14.7,-0.1 22,-0.2 33,-0.1 66.1,0.1 99.1,-0.1 0.1,1.1 58.65,-0.975 58.75,0.125 -34.9,1.9 -128.25,8.575 -163.15,8.275 -6.5,0.2 -12.6,-3.1 -16.7,-8.1 z" />
      <path
         style="fill:#ffffff;stroke:none;stroke-width:0.5"
         id="path4979"
         d="m 151.1,197.2 c 52.804,-6.01366 94.72321,-10.27385 147.65,-15.675 -20.5,2.8 -99.55,13.775 -120.05,16.775 -6.9,1.1 -14,2.3 -21.1,1.8 -2.5,0 -4.5,-1.6 -6.5,-2.9 z" />
      <path
         style="fill:#ffffff;stroke:none;stroke-width:0.5"
         id="path4981"
         d="m 181.5,202.9 c 19.6,-3.5 97.65,-17.975 117.25,-21.375 L 240.2,193.8 c -15,3.6 -30.1,6.7 -45.2,10.1 -6.9,1.3 -13.7,3.4 -20.7,3.6 -2.3,0.2 -4.4,-0.9 -6.4,-1.9 4.4,-1.2 9,-1.9 13.6,-2.7 z" />
      <path
         id="path4983"
         d="M 173.50002,226.4 298.75,181.525 c -15.92987,6.39134 -100.79814,38.32315 -116.6548,44.9877 -2.72224,1.31506 -5.88372,0.99089 -8.59519,-0.1127 z"
         style="fill:#ffffff;stroke:none;stroke-width:0.5" />
      <path
         id="path4985"
         d="M 298.75,181.525 C 281.11032,190.27782 195.98198,231.01995 178.39231,239.68616 173.75404,242.31988 168.36314,244.05718 163.2,242 Z"
         style="fill:#ffffff;stroke:none;stroke-width:0.5" />
      <path
         style="fill:#ffffff;stroke:none;stroke-width:0.5"
         d="m 179.5,213 c 16.1825,-4.62891 103.0443,-27.2059 119.25,-31.475 l -94.4393,27.90161 c -6.45692,1.58371 -12.67102,4.34685 -19.29756,5.02435 C 182.9775,214.7768 181.24545,213.7768 179.5,213 Z"
         id="path4987" />
    </g>
    <g
       transform="rotate(60,298.46064,183.17139)"
       id="g5005">
      <path
         style="fill:#87898b;stroke:none;stroke-width:0.5"
         d="m 154.7,171.2 c -6.1,-0.2 -12.1,-0.4 -18.1,-0.4 L 298.67302,182.05884 169.5,244.2 c -2.8,-0.4 -5.5,-0.9 -8,-2.2 1,-2.7 1.9,-5.7 4.3,-7.6 3.1,-2.6 7.1,-4 10.8,-5.5 -1.5,-0.8 -3.1,-1.6 -4.4,-2.7 1.1,-7.5 9.8,-8.8 15.7,-11.1 l -4.76742,-0.21161 c -2,-0.2 -3.93258,-1.18839 -5.63258,-2.28839 1,-1.7 2.1,-3.3 3.2,-4.9 -4.7,0.5 -10.6,1.7 -14,-2.5 0.2,-1.7 1.7,-3 2.6,-4.5 -6.5,-0.4 -14.9,2.3 -19.4,-3.9 0.4,-3.1 3.8,-4.4 5.9,-6.3 -7.1,-0.2 -14.1,-0.2 -21.1,-0.1 -6.5,0.2 -13,-3.2 -16.6,-8.6 -0.9,-1.1 0.4,-2.4 1,-3.3 4.1,-5.2 11,-7.6 17.5,-7.7"
         id="path4991" />
      <path
         d="m 118.9,181.7 c 7.3,-0.4 14.7,-0.1 22,-0.2 33,-0.1 66.1,0.1 99.1,-0.1 0.1,1.1 58.65,-0.975 58.75,0.125 -34.9,1.9 -128.25,8.575 -163.15,8.275 -6.5,0.2 -12.6,-3.1 -16.7,-8.1 z"
         id="path4993"
         style="fill:#ffffff;stroke:none;stroke-width:0.5" />
      <path
         d="m 151.1,197.2 c 52.804,-6.01366 94.72321,-10.27385 147.65,-15.675 -20.5,2.8 -99.55,13.775 -120.05,16.775 -6.9,1.1 -14,2.3 -21.1,1.8 -2.5,0 -4.5,-1.6 -6.5,-2.9 z"
         id="path4995"
         style="fill:#ffffff;stroke:none;stroke-width:0.5" />
      <path
         d="m 181.5,202.9 c 19.6,-3.5 97.65,-17.975 117.25,-21.375 L 240.2,193.8 c -15,3.6 -30.1,6.7 -45.2,10.1 -6.9,1.3 -13.7,3.4 -20.7,3.6 -2.3,0.2 -4.4,-0.9 -6.4,-1.9 4.4,-1.2 9,-1.9 13.6,-2.7 z"
         id="path4997"
         style="fill:#ffffff;stroke:none;stroke-width:0.5" />
      <path
         style="fill:#ffffff;stroke:none;stroke-width:0.5"
         d="M 173.50002,226.4 298.75,181.525 c -15.92987,6.39134 -100.79814,38.32315 -116.6548,44.9877 -2.72224,1.31506 -5.88372,0.99089 -8.59519,-0.1127 z"
         id="path4999" />
      <path
         style="fill:#ffffff;stroke:none;stroke-width:0.5"
         d="M 298.75,181.525 C 281.11032,190.27782 195.98198,231.01995 178.39231,239.68616 173.75404,242.31988 168.36314,244.05718 163.2,242 Z"
         id="path5001" />
      <path
         id="path5003"
         d="m 179.5,213 c 16.1825,-4.62891 103.0443,-27.2059 119.25,-31.475 l -94.4393,27.90161 c -6.45692,1.58371 -12.67102,4.34685 -19.29756,5.02435 C 182.9775,214.7768 181.24545,213.7768 179.5,213 Z"
         style="fill:#ffffff;stroke:none;stroke-width:0.5" />
    </g>
    <g
       id="g5021"
       transform="rotate(90,298.3939,182.16304)">
      <path
         id="path5007"
         d="m 154.7,171.2 c -6.1,-0.2 -12.1,-0.4 -18.1,-0.4 L 298.67302,182.05884 169.5,244.2 c -2.8,-0.4 -5.5,-0.9 -8,-2.2 1,-2.7 1.9,-5.7 4.3,-7.6 3.1,-2.6 7.1,-4 10.8,-5.5 -1.5,-0.8 -3.1,-1.6 -4.4,-2.7 1.1,-7.5 9.8,-8.8 15.7,-11.1 l -4.76742,-0.21161 c -2,-0.2 -3.93258,-1.18839 -5.63258,-2.28839 1,-1.7 2.1,-3.3 3.2,-4.9 -4.7,0.5 -10.6,1.7 -14,-2.5 0.2,-1.7 1.7,-3 2.6,-4.5 -6.5,-0.4 -14.9,2.3 -19.4,-3.9 0.4,-3.1 3.8,-4.4 5.9,-6.3 -7.1,-0.2 -14.1,-0.2 -21.1,-0.1 -6.5,0.2 -13,-3.2 -16.6,-8.6 -0.9,-1.1 0.4,-2.4 1,-3.3 4.1,-5.2 11,-7.6 17.5,-7.7"
         style="fill:#87898b;stroke:none;stroke-width:0.5" />
      <path
         style="fill:#ffffff;stroke:none;stroke-width:0.5"
         id="path5009"
         d="m 118.9,181.7 c 7.3,-0.4 14.7,-0.1 22,-0.2 33,-0.1 66.1,0.1 99.1,-0.1 0.1,1.1 58.65,-0.975 58.75,0.125 -34.9,1.9 -128.25,8.575 -163.15,8.275 -6.5,0.2 -12.6,-3.1 -16.7,-8.1 z" />
      <path
         style="fill:#ffffff;stroke:none;stroke-width:0.5"
         id="path5011"
         d="m 151.1,197.2 c 52.804,-6.01366 94.72321,-10.27385 147.65,-15.675 -20.5,2.8 -99.55,13.775 -120.05,16.775 -6.9,1.1 -14,2.3 -21.1,1.8 -2.5,0 -4.5,-1.6 -6.5,-2.9 z" />
      <path
         style="fill:#ffffff;stroke:none;stroke-width:0.5"
         id="path5013"
         d="m 181.5,202.9 c 19.6,-3.5 97.65,-17.975 117.25,-21.375 L 240.2,193.8 c -15,3.6 -30.1,6.7 -45.2,10.1 -6.9,1.3 -13.7,3.4 -20.7,3.6 -2.3,0.2 -4.4,-0.9 -6.4,-1.9 4.4,-1.2 9,-1.9 13.6,-2.7 z" />
      <path
         id="path5015"
         d="M 173.50002,226.4 298.75,181.525 c -15.92987,6.39134 -100.79814,38.32315 -116.6548,44.9877 -2.72224,1.31506 -5.88372,0.99089 -8.59519,-0.1127 z"
         style="fill:#ffffff;stroke:none;stroke-width:0.5" />
      <path
         id="path5017"
         d="M 298.75,181.525 C 281.11032,190.27782 195.98198,231.01995 178.39231,239.68616 173.75404,242.31988 168.36314,244.05718 163.2,242 Z"
         style="fill:#ffffff;stroke:none;stroke-width:0.5" />
      <path
         style="fill:#ffffff;stroke:none;stroke-width:0.5"
         d="m 179.5,213 c 16.1825,-4.62891 103.0443,-27.2059 119.25,-31.475 l -94.4393,27.90161 c -6.45692,1.58371 -12.67102,4.34685 -19.29756,5.02435 C 182.9775,214.7768 181.24545,213.7768 179.5,213 Z"
         id="path5019" />
    </g>
    <g
       transform="rotate(120,298.45078,182.12861)"
       id="g5037">
      <path
         style="fill:#87898b;stroke:none;stroke-width:0.5"
         d="m 154.7,171.2 c -6.1,-0.2 -12.1,-0.4 -18.1,-0.4 L 298.67302,182.05884 169.5,244.2 c -2.8,-0.4 -5.5,-0.9 -8,-2.2 1,-2.7 1.9,-5.7 4.3,-7.6 3.1,-2.6 7.1,-4 10.8,-5.5 -1.5,-0.8 -3.1,-1.6 -4.4,-2.7 1.1,-7.5 9.8,-8.8 15.7,-11.1 l -4.76742,-0.21161 c -2,-0.2 -3.93258,-1.18839 -5.63258,-2.28839 1,-1.7 2.1,-3.3 3.2,-4.9 -4.7,0.5 -10.6,1.7 -14,-2.5 0.2,-1.7 1.7,-3 2.6,-4.5 -6.5,-0.4 -14.9,2.3 -19.4,-3.9 0.4,-3.1 3.8,-4.4 5.9,-6.3 -7.1,-0.2 -14.1,-0.2 -21.1,-0.1 -6.5,0.2 -13,-3.2 -16.6,-8.6 -0.9,-1.1 0.4,-2.4 1,-3.3 4.1,-5.2 11,-7.6 17.5,-7.7"
         id="path5023" />
      <path
         d="m 118.9,181.7 c 7.3,-0.4 14.7,-0.1 22,-0.2 33,-0.1 66.1,0.1 99.1,-0.1 0.1,1.1 58.65,-0.975 58.75,0.125 -34.9,1.9 -128.25,8.575 -163.15,8.275 -6.5,0.2 -12.6,-3.1 -16.7,-8.1 z"
         id="path5025"
         style="fill:#ffffff;stroke:none;stroke-width:0.5" />
      <path
         d="m 151.1,197.2 c 52.804,-6.01366 94.72321,-10.27385 147.65,-15.675 -20.5,2.8 -99.55,13.775 -120.05,16.775 -6.9,1.1 -14,2.3 -21.1,1.8 -2.5,0 -4.5,-1.6 -6.5,-2.9 z"
         id="path5027"
         style="fill:#ffffff;stroke:none;stroke-width:0.5" />
      <path
         d="m 181.5,202.9 c 19.6,-3.5 97.65,-17.975 117.25,-21.375 L 240.2,193.8 c -15,3.6 -30.1,6.7 -45.2,10.1 -6.9,1.3 -13.7,3.4 -20.7,3.6 -2.3,0.2 -4.4,-0.9 -6.4,-1.9 4.4,-1.2 9,-1.9 13.6,-2.7 z"
         id="path5029"
         style="fill:#ffffff;stroke:none;stroke-width:0.5" />
      <path
         style="fill:#ffffff;stroke:none;stroke-width:0.5"
         d="M 173.50002,226.4 298.75,181.525 c -15.92987,6.39134 -100.79814,38.32315 -116.6548,44.9877 -2.72224,1.31506 -5.88372,0.99089 -8.59519,-0.1127 z"
         id="path5031" />
      <path
         style="fill:#ffffff;stroke:none;stroke-width:0.5"
         d="M 298.75,181.525 C 281.11032,190.27782 195.98198,231.01995 178.39231,239.68616 173.75404,242.31988 168.36314,244.05718 163.2,242 Z"
         id="path5033" />
      <path
         id="path5035"
         d="m 179.5,213 c 16.1825,-4.62891 103.0443,-27.2059 119.25,-31.475 l -94.4393,27.90161 c -6.45692,1.58371 -12.67102,4.34685 -19.29756,5.02435 C 182.9775,214.7768 181.24545,213.7768 179.5,213 Z"
         style="fill:#ffffff;stroke:none;stroke-width:0.5" />
    </g>
    <g
       id="g5053"
       transform="rotate(150,298.49956,182.03901)">
      <path
         id="path5039"
         d="m 154.7,171.2 c -6.1,-0.2 -12.1,-0.4 -18.1,-0.4 L 298.67302,182.05884 169.5,244.2 c -2.8,-0.4 -5.5,-0.9 -8,-2.2 1,-2.7 1.9,-5.7 4.3,-7.6 3.1,-2.6 7.1,-4 10.8,-5.5 -1.5,-0.8 -3.1,-1.6 -4.4,-2.7 1.1,-7.5 9.8,-8.8 15.7,-11.1 l -4.76742,-0.21161 c -2,-0.2 -3.93258,-1.18839 -5.63258,-2.28839 1,-1.7 2.1,-3.3 3.2,-4.9 -4.7,0.5 -10.6,1.7 -14,-2.5 0.2,-1.7 1.7,-3 2.6,-4.5 -6.5,-0.4 -14.9,2.3 -19.4,-3.9 0.4,-3.1 3.8,-4.4 5.9,-6.3 -7.1,-0.2 -14.1,-0.2 -21.1,-0.1 -6.5,0.2 -13,-3.2 -16.6,-8.6 -0.9,-1.1 0.4,-2.4 1,-3.3 4.1,-5.2 11,-7.6 17.5,-7.7"
         style="fill:#87898b;stroke:none;stroke-width:0.5" />
      <path
         style="fill:#ffffff;stroke:none;stroke-width:0.5"
         id="path5041"
         d="m 118.9,181.7 c 7.3,-0.4 14.7,-0.1 22,-0.2 33,-0.1 66.1,0.1 99.1,-0.1 0.1,1.1 58.65,-0.975 58.75,0.125 -34.9,1.9 -128.25,8.575 -163.15,8.275 -6.5,0.2 -12.6,-3.1 -16.7,-8.1 z" />
      <path
         style="fill:#ffffff;stroke:none;stroke-width:0.5"
         id="path5043"
         d="m 151.1,197.2 c 52.804,-6.01366 94.72321,-10.27385 147.65,-15.675 -20.5,2.8 -99.55,13.775 -120.05,16.775 -6.9,1.1 -14,2.3 -21.1,1.8 -2.5,0 -4.5,-1.6 -6.5,-2.9 z" />
      <path
         style="fill:#ffffff;stroke:none;stroke-width:0.5"
         id="path5045"
         d="m 181.5,202.9 c 19.6,-3.5 97.65,-17.975 117.25,-21.375 L 240.2,193.8 c -15,3.6 -30.1,6.7 -45.2,10.1 -6.9,1.3 -13.7,3.4 -20.7,3.6 -2.3,0.2 -4.4,-0.9 -6.4,-1.9 4.4,-1.2 9,-1.9 13.6,-2.7 z" />
      <path
         id="path5047"
         d="M 173.50002,226.4 298.75,181.525 c -15.92987,6.39134 -100.79814,38.32315 -116.6548,44.9877 -2.72224,1.31506 -5.88372,0.99089 -8.59519,-0.1127 z"
         style="fill:#ffffff;stroke:none;stroke-width:0.5" />
      <path
         id="path5049"
         d="M 298.75,181.525 C 281.11032,190.27782 195.98198,231.01995 178.39231,239.68616 173.75404,242.31988 168.36314,244.05718 163.2,242 Z"
         style="fill:#ffffff;stroke:none;stroke-width:0.5" />
      <path
         style="fill:#ffffff;stroke:none;stroke-width:0.5"
         d="m 179.5,213 c 16.1825,-4.62891 103.0443,-27.2059 119.25,-31.475 l -94.4393,27.90161 c -6.45692,1.58371 -12.67102,4.34685 -19.29756,5.02435 C 182.9775,214.7768 181.24545,213.7768 179.5,213 Z"
         id="path5051" />
    </g>
    <g
       transform="rotate(-180,298.16441,181.5462)"
       id="g5069">
      <path
         style="fill:#87898b;stroke:none;stroke-width:0.5"
         d="m 154.7,171.2 c -6.1,-0.2 -12.1,-0.4 -18.1,-0.4 L 298.67302,182.05884 169.5,244.2 c -2.8,-0.4 -5.5,-0.9 -8,-2.2 1,-2.7 1.9,-5.7 4.3,-7.6 3.1,-2.6 7.1,-4 10.8,-5.5 -1.5,-0.8 -3.1,-1.6 -4.4,-2.7 1.1,-7.5 9.8,-8.8 15.7,-11.1 l -4.76742,-0.21161 c -2,-0.2 -3.93258,-1.18839 -5.63258,-2.28839 1,-1.7 2.1,-3.3 3.2,-4.9 -4.7,0.5 -10.6,1.7 -14,-2.5 0.2,-1.7 1.7,-3 2.6,-4.5 -6.5,-0.4 -14.9,2.3 -19.4,-3.9 0.4,-3.1 3.8,-4.4 5.9,-6.3 -7.1,-0.2 -14.1,-0.2 -21.1,-0.1 -6.5,0.2 -13,-3.2 -16.6,-8.6 -0.9,-1.1 0.4,-2.4 1,-3.3 4.1,-5.2 11,-7.6 17.5,-7.7"
         id="path5055" />
      <path
         d="m 118.9,181.7 c 7.3,-0.4 14.7,-0.1 22,-0.2 33,-0.1 66.1,0.1 99.1,-0.1 0.1,1.1 58.65,-0.975 58.75,0.125 -34.9,1.9 -128.25,8.575 -163.15,8.275 -6.5,0.2 -12.6,-3.1 -16.7,-8.1 z"
         id="path5057"
         style="fill:#ffffff;stroke:none;stroke-width:0.5" />
      <path
         d="m 151.1,197.2 c 52.804,-6.01366 94.72321,-10.27385 147.65,-15.675 -20.5,2.8 -99.55,13.775 -120.05,16.775 -6.9,1.1 -14,2.3 -21.1,1.8 -2.5,0 -4.5,-1.6 -6.5,-2.9 z"
         id="path5059"
         style="fill:#ffffff;stroke:none;stroke-width:0.5" />
      <path
         d="m 181.5,202.9 c 19.6,-3.5 97.65,-17.975 117.25,-21.375 L 240.2,193.8 c -15,3.6 -30.1,6.7 -45.2,10.1 -6.9,1.3 -13.7,3.4 -20.7,3.6 -2.3,0.2 -4.4,-0.9 -6.4,-1.9 4.4,-1.2 9,-1.9 13.6,-2.7 z"
         id="path5061"
         style="fill:#ffffff;stroke:none;stroke-width:0.5" />
      <path
         style="fill:#ffffff;stroke:none;stroke-width:0.5"
         d="M 173.50002,226.4 298.75,181.525 c -15.92987,6.39134 -100.79814,38.32315 -116.6548,44.9877 -2.72224,1.31506 -5.88372,0.99089 -8.59519,-0.1127 z"
         id="path5063" />
      <path
         style="fill:#ffffff;stroke:none;stroke-width:0.5"
         d="M 298.75,181.525 C 281.11032,190.27782 195.98198,231.01995 178.39231,239.68616 173.75404,242.31988 168.36314,244.05718 163.2,242 Z"
         id="path5065" />
      <path
         id="path5067"
         d="m 179.5,213 c 16.1825,-4.62891 103.0443,-27.2059 119.25,-31.475 l -94.4393,27.90161 c -6.45692,1.58371 -12.67102,4.34685 -19.29756,5.02435 C 182.9775,214.7768 181.24545,213.7768 179.5,213 Z"
         style="fill:#ffffff;stroke:none;stroke-width:0.5" />
    </g>
    <g
       id="g5085"
       transform="rotate(-150,298.30086,181.71867)">
      <path
         id="path5071"
         d="m 154.7,171.2 c -6.1,-0.2 -12.1,-0.4 -18.1,-0.4 L 298.67302,182.05884 169.5,244.2 c -2.8,-0.4 -5.5,-0.9 -8,-2.2 1,-2.7 1.9,-5.7 4.3,-7.6 3.1,-2.6 7.1,-4 10.8,-5.5 -1.5,-0.8 -3.1,-1.6 -4.4,-2.7 1.1,-7.5 9.8,-8.8 15.7,-11.1 l -4.76742,-0.21161 c -2,-0.2 -3.93258,-1.18839 -5.63258,-2.28839 1,-1.7 2.1,-3.3 3.2,-4.9 -4.7,0.5 -10.6,1.7 -14,-2.5 0.2,-1.7 1.7,-3 2.6,-4.5 -6.5,-0.4 -14.9,2.3 -19.4,-3.9 0.4,-3.1 3.8,-4.4 5.9,-6.3 -7.1,-0.2 -14.1,-0.2 -21.1,-0.1 -6.5,0.2 -13,-3.2 -16.6,-8.6 -0.9,-1.1 0.4,-2.4 1,-3.3 4.1,-5.2 11,-7.6 17.5,-7.7"
         style="fill:#87898b;stroke:none;stroke-width:0.5" />
      <path
         style="fill:#ffffff;stroke:none;stroke-width:0.5"
         id="path5073"
         d="m 118.9,181.7 c 7.3,-0.4 14.7,-0.1 22,-0.2 33,-0.1 66.1,0.1 99.1,-0.1 0.1,1.1 58.65,-0.975 58.75,0.125 -34.9,1.9 -128.25,8.575 -163.15,8.275 -6.5,0.2 -12.6,-3.1 -16.7,-8.1 z" />
      <path
         style="fill:#ffffff;stroke:none;stroke-width:0.5"
         id="path5075"
         d="m 151.1,197.2 c 52.804,-6.01366 94.72321,-10.27385 147.65,-15.675 -20.5,2.8 -99.55,13.775 -120.05,16.775 -6.9,1.1 -14,2.3 -21.1,1.8 -2.5,0 -4.5,-1.6 -6.5,-2.9 z" />
      <path
         style="fill:#ffffff;stroke:none;stroke-width:0.5"
         id="path5077"
         d="m 181.5,202.9 c 19.6,-3.5 97.65,-17.975 117.25,-21.375 L 240.2,193.8 c -15,3.6 -30.1,6.7 -45.2,10.1 -6.9,1.3 -13.7,3.4 -20.7,3.6 -2.3,0.2 -4.4,-0.9 -6.4,-1.9 4.4,-1.2 9,-1.9 13.6,-2.7 z" />
      <path
         id="path5079"
         d="M 173.50002,226.4 298.75,181.525 c -15.92987,6.39134 -100.79814,38.32315 -116.6548,44.9877 -2.72224,1.31506 -5.88372,0.99089 -8.59519,-0.1127 z"
         style="fill:#ffffff;stroke:none;stroke-width:0.5" />
      <path
         id="path5081"
         d="M 298.75,181.525 C 281.11032,190.27782 195.98198,231.01995 178.39231,239.68616 173.75404,242.31988 168.36314,244.05718 163.2,242 Z"
         style="fill:#ffffff;stroke:none;stroke-width:0.5" />
      <path
         style="fill:#ffffff;stroke:none;stroke-width:0.5"
         d="m 179.5,213 c 16.1825,-4.62891 103.0443,-27.2059 119.25,-31.475 l -94.4393,27.90161 c -6.45692,1.58371 -12.67102,4.34685 -19.29756,5.02435 C 182.9775,214.7768 181.24545,213.7768 179.5,213 Z"
         id="path5083" />
    </g>
    <g
       transform="rotate(-120,298.25293,181.53534)"
       id="g5101">
      <path
         style="fill:#87898b;stroke:none;stroke-width:0.5"
         d="m 154.7,171.2 c -6.1,-0.2 -12.1,-0.4 -18.1,-0.4 L 298.67302,182.05884 169.5,244.2 c -2.8,-0.4 -5.5,-0.9 -8,-2.2 1,-2.7 1.9,-5.7 4.3,-7.6 3.1,-2.6 7.1,-4 10.8,-5.5 -1.5,-0.8 -3.1,-1.6 -4.4,-2.7 1.1,-7.5 9.8,-8.8 15.7,-11.1 l -4.76742,-0.21161 c -2,-0.2 -3.93258,-1.18839 -5.63258,-2.28839 1,-1.7 2.1,-3.3 3.2,-4.9 -4.7,0.5 -10.6,1.7 -14,-2.5 0.2,-1.7 1.7,-3 2.6,-4.5 -6.5,-0.4 -14.9,2.3 -19.4,-3.9 0.4,-3.1 3.8,-4.4 5.9,-6.3 -7.1,-0.2 -14.1,-0.2 -21.1,-0.1 -6.5,0.2 -13,-3.2 -16.6,-8.6 -0.9,-1.1 0.4,-2.4 1,-3.3 4.1,-5.2 11,-7.6 17.5,-7.7"
         id="path5087" />
      <path
         d="m 118.9,181.7 c 7.3,-0.4 14.7,-0.1 22,-0.2 33,-0.1 66.1,0.1 99.1,-0.1 0.1,1.1 58.65,-0.975 58.75,0.125 -34.9,1.9 -128.25,8.575 -163.15,8.275 -6.5,0.2 -12.6,-3.1 -16.7,-8.1 z"
         id="path5089"
         style="fill:#ffffff;stroke:none;stroke-width:0.5" />
      <path
         d="m 151.1,197.2 c 52.804,-6.01366 94.72321,-10.27385 147.65,-15.675 -20.5,2.8 -99.55,13.775 -120.05,16.775 -6.9,1.1 -14,2.3 -21.1,1.8 -2.5,0 -4.5,-1.6 -6.5,-2.9 z"
         id="path5091"
         style="fill:#ffffff;stroke:none;stroke-width:0.5" />
      <path
         d="m 181.5,202.9 c 19.6,-3.5 97.65,-17.975 117.25,-21.375 L 240.2,193.8 c -15,3.6 -30.1,6.7 -45.2,10.1 -6.9,1.3 -13.7,3.4 -20.7,3.6 -2.3,0.2 -4.4,-0.9 -6.4,-1.9 4.4,-1.2 9,-1.9 13.6,-2.7 z"
         id="path5093"
         style="fill:#ffffff;stroke:none;stroke-width:0.5" />
      <path
         style="fill:#ffffff;stroke:none;stroke-width:0.5"
         d="M 173.50002,226.4 298.75,181.525 c -15.92987,6.39134 -100.79814,38.32315 -116.6548,44.9877 -2.72224,1.31506 -5.88372,0.99089 -8.59519,-0.1127 z"
         id="path5095" />
      <path
         style="fill:#ffffff;stroke:none;stroke-width:0.5"
         d="M 298.75,181.525 C 281.11032,190.27782 195.98198,231.01995 178.39231,239.68616 173.75404,242.31988 168.36314,244.05718 163.2,242 Z"
         id="path5097" />
      <path
         id="path5099"
         d="m 179.5,213 c 16.1825,-4.62891 103.0443,-27.2059 119.25,-31.475 l -94.4393,27.90161 c -6.45692,1.58371 -12.67102,4.34685 -19.29756,5.02435 C 182.9775,214.7768 181.24545,213.7768 179.5,213 Z"
         style="fill:#ffffff;stroke:none;stroke-width:0.5" />
    </g>
    <g
       id="g5117"
       transform="rotate(-90,298.09849,180.77721)">
      <path
         id="path5103"
         d="m 154.7,171.2 c -6.1,-0.2 -12.1,-0.4 -18.1,-0.4 L 298.67302,182.05884 169.5,244.2 c -2.8,-0.4 -5.5,-0.9 -8,-2.2 1,-2.7 1.9,-5.7 4.3,-7.6 3.1,-2.6 7.1,-4 10.8,-5.5 -1.5,-0.8 -3.1,-1.6 -4.4,-2.7 1.1,-7.5 9.8,-8.8 15.7,-11.1 l -4.76742,-0.21161 c -2,-0.2 -3.93258,-1.18839 -5.63258,-2.28839 1,-1.7 2.1,-3.3 3.2,-4.9 -4.7,0.5 -10.6,1.7 -14,-2.5 0.2,-1.7 1.7,-3 2.6,-4.5 -6.5,-0.4 -14.9,2.3 -19.4,-3.9 0.4,-3.1 3.8,-4.4 5.9,-6.3 -7.1,-0.2 -14.1,-0.2 -21.1,-0.1 -6.5,0.2 -13,-3.2 -16.6,-8.6 -0.9,-1.1 0.4,-2.4 1,-3.3 4.1,-5.2 11,-7.6 17.5,-7.7"
         style="fill:#87898b;stroke:none;stroke-width:0.5" />
      <path
         style="fill:#ffffff;stroke:none;stroke-width:0.5"
         id="path5105"
         d="m 118.9,181.7 c 7.3,-0.4 14.7,-0.1 22,-0.2 33,-0.1 66.1,0.1 99.1,-0.1 0.1,1.1 58.65,-0.975 58.75,0.125 -34.9,1.9 -128.25,8.575 -163.15,8.275 -6.5,0.2 -12.6,-3.1 -16.7,-8.1 z" />
      <path
         style="fill:#ffffff;stroke:none;stroke-width:0.5"
         id="path5107"
         d="m 151.1,197.2 c 52.804,-6.01366 94.72321,-10.27385 147.65,-15.675 -20.5,2.8 -99.55,13.775 -120.05,16.775 -6.9,1.1 -14,2.3 -21.1,1.8 -2.5,0 -4.5,-1.6 -6.5,-2.9 z" />
      <path
         style="fill:#ffffff;stroke:none;stroke-width:0.5"
         id="path5109"
         d="m 181.5,202.9 c 19.6,-3.5 97.65,-17.975 117.25,-21.375 L 240.2,193.8 c -15,3.6 -30.1,6.7 -45.2,10.1 -6.9,1.3 -13.7,3.4 -20.7,3.6 -2.3,0.2 -4.4,-0.9 -6.4,-1.9 4.4,-1.2 9,-1.9 13.6,-2.7 z" />
      <path
         id="path5111"
         d="M 173.50002,226.4 298.75,181.525 c -15.92987,6.39134 -100.79814,38.32315 -116.6548,44.9877 -2.72224,1.31506 -5.88372,0.99089 -8.59519,-0.1127 z"
         style="fill:#ffffff;stroke:none;stroke-width:0.5" />
      <path
         id="path5113"
         d="M 298.75,181.525 C 281.11032,190.27782 195.98198,231.01995 178.39231,239.68616 173.75404,242.31988 168.36314,244.05718 163.2,242 Z"
         style="fill:#ffffff;stroke:none;stroke-width:0.5" />
      <path
         style="fill:#ffffff;stroke:none;stroke-width:0.5"
         d="m 179.5,213 c 16.1825,-4.62891 103.0443,-27.2059 119.25,-31.475 l -94.4393,27.90161 c -6.45692,1.58371 -12.67102,4.34685 -19.29756,5.02435 C 182.9775,214.7768 181.24545,213.7768 179.5,213 Z"
         id="path5115" />
    </g>
    <g
       transform="rotate(-60,298.32625,180.66797)"
       id="g5133">
      <path
         style="fill:#87898b;stroke:none;stroke-width:0.5"
         d="m 154.7,171.2 c -6.1,-0.2 -12.1,-0.4 -18.1,-0.4 L 298.67302,182.05884 169.5,244.2 c -2.8,-0.4 -5.5,-0.9 -8,-2.2 1,-2.7 1.9,-5.7 4.3,-7.6 3.1,-2.6 7.1,-4 10.8,-5.5 -1.5,-0.8 -3.1,-1.6 -4.4,-2.7 1.1,-7.5 9.8,-8.8 15.7,-11.1 l -4.76742,-0.21161 c -2,-0.2 -3.93258,-1.18839 -5.63258,-2.28839 1,-1.7 2.1,-3.3 3.2,-4.9 -4.7,0.5 -10.6,1.7 -14,-2.5 0.2,-1.7 1.7,-3 2.6,-4.5 -6.5,-0.4 -14.9,2.3 -19.4,-3.9 0.4,-3.1 3.8,-4.4 5.9,-6.3 -7.1,-0.2 -14.1,-0.2 -21.1,-0.1 -6.5,0.2 -13,-3.2 -16.6,-8.6 -0.9,-1.1 0.4,-2.4 1,-3.3 4.1,-5.2 11,-7.6 17.5,-7.7"
         id="path5119" />
      <path
         d="m 118.9,181.7 c 7.3,-0.4 14.7,-0.1 22,-0.2 33,-0.1 66.1,0.1 99.1,-0.1 0.1,1.1 58.65,-0.975 58.75,0.125 -34.9,1.9 -128.25,8.575 -163.15,8.275 -6.5,0.2 -12.6,-3.1 -16.7,-8.1 z"
         id="path5121"
         style="fill:#ffffff;stroke:none;stroke-width:0.5" />
      <path
         d="m 151.1,197.2 c 52.804,-6.01366 94.72321,-10.27385 147.65,-15.675 -20.5,2.8 -99.55,13.775 -120.05,16.775 -6.9,1.1 -14,2.3 -21.1,1.8 -2.5,0 -4.5,-1.6 -6.5,-2.9 z"
         id="path5123"
         style="fill:#ffffff;stroke:none;stroke-width:0.5" />
      <path
         d="m 181.5,202.9 c 19.6,-3.5 97.65,-17.975 117.25,-21.375 L 240.2,193.8 c -15,3.6 -30.1,6.7 -45.2,10.1 -6.9,1.3 -13.7,3.4 -20.7,3.6 -2.3,0.2 -4.4,-0.9 -6.4,-1.9 4.4,-1.2 9,-1.9 13.6,-2.7 z"
         id="path5125"
         style="fill:#ffffff;stroke:none;stroke-width:0.5" />
      <path
         style="fill:#ffffff;stroke:none;stroke-width:0.5"
         d="M 173.50002,226.4 298.75,181.525 c -15.92987,6.39134 -100.79814,38.32315 -116.6548,44.9877 -2.72224,1.31506 -5.88372,0.99089 -8.59519,-0.1127 z"
         id="path5127" />
      <path
         style="fill:#ffffff;stroke:none;stroke-width:0.5"
         d="M 298.75,181.525 C 281.11032,190.27782 195.98198,231.01995 178.39231,239.68616 173.75404,242.31988 168.36314,244.05718 163.2,242 Z"
         id="path5129" />
      <path
         id="path5131"
         d="m 179.5,213 c 16.1825,-4.62891 103.0443,-27.2059 119.25,-31.475 l -94.4393,27.90161 c -6.45692,1.58371 -12.67102,4.34685 -19.29756,5.02435 C 182.9775,214.7768 181.24545,213.7768 179.5,213 Z"
         style="fill:#ffffff;stroke:none;stroke-width:0.5" />
    </g>
    <g
       id="g5149"
       transform="rotate(-30,298.28541,178.69182)">
      <path
         id="path5135"
         d="m 154.7,171.2 c -6.1,-0.2 -12.1,-0.4 -18.1,-0.4 L 298.67302,182.05884 169.5,244.2 c -2.8,-0.4 -5.5,-0.9 -8,-2.2 1,-2.7 1.9,-5.7 4.3,-7.6 3.1,-2.6 7.1,-4 10.8,-5.5 -1.5,-0.8 -3.1,-1.6 -4.4,-2.7 1.1,-7.5 9.8,-8.8 15.7,-11.1 l -4.76742,-0.21161 c -2,-0.2 -3.93258,-1.18839 -5.63258,-2.28839 1,-1.7 2.1,-3.3 3.2,-4.9 -4.7,0.5 -10.6,1.7 -14,-2.5 0.2,-1.7 1.7,-3 2.6,-4.5 -6.5,-0.4 -14.9,2.3 -19.4,-3.9 0.4,-3.1 3.8,-4.4 5.9,-6.3 -7.1,-0.2 -14.1,-0.2 -21.1,-0.1 -6.5,0.2 -13,-3.2 -16.6,-8.6 -0.9,-1.1 0.4,-2.4 1,-3.3 4.1,-5.2 11,-7.6 17.5,-7.7"
         style="fill:#87898b;stroke:none;stroke-width:0.5" />
      <path
         style="fill:#ffffff;stroke:none;stroke-width:0.5"
         id="path5137"
         d="m 118.9,181.7 c 7.3,-0.4 14.7,-0.1 22,-0.2 33,-0.1 66.1,0.1 99.1,-0.1 0.1,1.1 58.65,-0.975 58.75,0.125 -34.9,1.9 -128.25,8.575 -163.15,8.275 -6.5,0.2 -12.6,-3.1 -16.7,-8.1 z" />
      <path
         style="fill:#ffffff;stroke:none;stroke-width:0.5"
         id="path5139"
         d="m 151.1,197.2 c 52.804,-6.01366 94.72321,-10.27385 147.65,-15.675 -20.5,2.8 -99.55,13.775 -120.05,16.775 -6.9,1.1 -14,2.3 -21.1,1.8 -2.5,0 -4.5,-1.6 -6.5,-2.9 z" />
      <path
         style="fill:#ffffff;stroke:none;stroke-width:0.5"
         id="path5141"
         d="m 181.5,202.9 c 19.6,-3.5 97.65,-17.975 117.25,-21.375 L 240.2,193.8 c -15,3.6 -30.1,6.7 -45.2,10.1 -6.9,1.3 -13.7,3.4 -20.7,3.6 -2.3,0.2 -4.4,-0.9 -6.4,-1.9 4.4,-1.2 9,-1.9 13.6,-2.7 z" />
      <path
         id="path5143"
         d="M 173.50002,226.4 298.75,181.525 c -15.92987,6.39134 -100.79814,38.32315 -116.6548,44.9877 -2.72224,1.31506 -5.88372,0.99089 -8.59519,-0.1127 z"
         style="fill:#ffffff;stroke:none;stroke-width:0.5" />
      <path
         id="path5145"
         d="M 298.75,181.525 C 281.11032,190.27782 195.98198,231.01995 178.39231,239.68616 173.75404,242.31988 168.36314,244.05718 163.2,242 Z"
         style="fill:#ffffff;stroke:none;stroke-width:0.5" />
      <path
         style="fill:#ffffff;stroke:none;stroke-width:0.5"
         d="m 179.5,213 c 16.1825,-4.62891 103.0443,-27.2059 119.25,-31.475 l -94.4393,27.90161 c -6.45692,1.58371 -12.67102,4.34685 -19.29756,5.02435 C 182.9775,214.7768 181.24545,213.7768 179.5,213 Z"
         id="path5147" />
    </g>
    <g
       style="display:inline"
       id="layer3">
      <path
         style="fill:#efcf4d;stroke:#000000;stroke-width:1"
         id="path4723"
         d="m 366.58947,96.395909 -0.19794,0.370351 -0.31999,-0.257922 c -0.39917,-0.314138 -0.86762,-0.538995 -1.06225,-0.58529 -0.32661,-0.08597 -0.42557,-0.07936 -0.46186,-0.0496 -0.28701,0.248003 -0.11876,2.367609 -0.0627,3.062024 l 0.0495,0.674567 -0.57731,-0.333978 c -0.34639,-0.205019 -0.92371,-0.413344 -1.30309,-0.512548 -0.41236,-0.115734 -0.51793,-0.07601 -0.55091,-0.05953 -0.0132,0.0103 -0.0528,0.05624 -0.10557,0.254621 -0.14846,0.588598 0.14185,1.216866 0.44866,1.884826 0.34638,0.73078 0.69937,1.48141 0.49813,2.27501 -0.17814,0.6845 -0.82144,1.30285 -1.8375,1.03501 -0.91381,-0.24469 -1.31958,-0.96225 -1.64288,-1.54424 l -0.0923,-0.16203 c -0.38268,-0.66465 -1.21071,-1.54754 -2.30925,-1.84514 -0.40908,-0.10912 -0.82144,-0.20502 -0.97979,-0.11243 -0.18804,0.10582 -0.33978,0.65473 -0.49154,1.24993 -0.43216,1.70627 -0.0428,4.09372 0.9336,5.80991 l 0.12536,0.21493 -0.15175,0.19179 c -0.75545,0.97218 -1.21731,2.06339 -1.34267,2.56271 -0.28701,1.10775 -0.22102,1.20695 0.83463,1.49133 1.35586,0.36373 2.83709,-0.23478 4.0115,-0.70764 0.9468,-0.38358 1.69235,-0.68118 2.29276,-0.52246 0.89731,0.23808 0.96988,0.6944 0.96988,1.26647 0,1.78232 -2.26636,3.55472 -6.38012,5.01959 -0.10557,0.0464 -1.79793,0.58198 -3.46389,1.2797 -2.29935,0.95564 -3.92573,1.94765 -4.86262,3.07194 l -0.26722,0.32406 -0.27381,-0.32406 c -0.88081,-1.07138 -2.28946,-1.98733 -4.53603,-2.92976 -0.6202,0.29431 -1.32618,0.61506 -2.51708,1.15074 1.39874,0.64812 2.23008,1.1772 2.23008,1.97742 0,1.19042 -1.02598,1.78893 -3.04822,1.78893 -2.02225,0 -3.03832,-0.59851 -3.03832,-1.78893 0,-0.9325 1.17112,-1.54093 2.83048,-2.30809 0,0 2.03214,-0.90934 2.66554,-1.23671 0.6301,-0.32736 1.76493,-0.93249 1.76493,-0.93249 1.01608,-0.5886 2.26637,-1.39874 3.78058,-2.9529 l 0.25402,-0.26122 0.24412,0.26452 c 1.42184,1.49134 2.70842,2.32463 3.79047,2.94629 l 0.79174,0.41664 c 0.87092,-0.37034 1.51422,-0.58197 2.01235,-0.74731 -3.17027,-1.31607 -5.83251,-3.23727 -6.85188,-4.95015 -1.06225,1.72941 -3.78717,3.68037 -6.99703,5.00306 -0.81154,0.38027 -2.74472,1.02839 -4.24903,1.68973 -2.01235,0.86966 -3.95212,2.22872 -4.9517,3.48858 l -0.27711,0.3439 -0.27051,-0.35051 c -1.00617,-1.27308 -2.59626,-2.43043 -4.70099,-3.43568 -0.55751,0.27446 -1.14802,0.56215 -2.22017,1.03831 1.31957,0.6382 2.141,1.18711 2.141,1.98072 0,1.19703 -1.05566,1.80216 -3.12738,1.80216 -2.07833,0 -3.13399,-0.60513 -3.13399,-1.80216 0,-0.95894 1.16452,-1.51447 3.06471,-2.34776 0,0 1.79462,-0.7837 2.42471,-1.08791 0.6301,-0.30753 1.77483,-0.94241 1.77483,-0.94241 1.01278,-0.5886 2.51049,-1.54093 3.76408,-3.03226 l 0.26391,-0.31745 0.26722,0.31745 c 1.25029,1.49133 2.75791,2.44696 3.77068,3.03226 l 0.96329,0.50592 c 0.97979,-0.42326 1.68906,-0.67126 2.23998,-0.86967 -3.77399,-1.42519 -5.83911,-3.12484 -5.83911,-4.8278 0,-0.70102 0.45524,-1.40535 1.32947,-1.40535 0.6202,0 1.26678,0.48278 2.08822,1.09783 1.03256,0.76716 2.30925,1.72279 3.708,1.72279 1.10184,0 1.17772,-0.086 1.17772,-1.22678 0,-0.51254 -0.17814,-1.68974 -0.66969,-2.83055 l -0.099,-0.22486 0.17155,-0.17195 c 1.37566,-1.41196 2.34224,-3.61754 2.34224,-5.37671 0,-1.48472 0,-1.48472 -1.14802,-1.48472 -1.12824,0 -2.15091,0.63819 -2.68534,1.18711 l -0.13195,0.12896 c -0.45196,0.47616 -1.02598,1.07138 -1.96947,1.07138 -1.04576,0 -1.52081,-0.76716 -1.52081,-1.48141 0,-0.81346 0.52783,-1.45495 1.03916,-2.07331 0.46516,-0.55884 0.90061,-1.097826 0.90061,-1.699649 0,-0.314141 0,-0.363743 -0.5839,-0.363743 -0.39918,0 -1.00618,0.05624 -1.39215,0.158724 l -0.64,0.171948 0.21773,-0.63819 c 0.23093,-0.654736 0.91711,-2.661911 0.68948,-2.979356 -0.0198,-0.03307 -0.11876,-0.06944 -0.45195,-0.06944 -0.19794,0 -0.70927,0.08929 -1.16783,0.294298 l -0.38267,0.165335 -0.0957,-0.406726 c -0.21443,-0.863052 -1.12824,-2.036935 -2.12782,-2.423821 -0.99957,0.386886 -1.90348,1.560769 -2.11791,2.423821 l -0.099,0.406726 -0.37938,-0.165335 c -0.46515,-0.205016 -0.97319,-0.294298 -1.17112,-0.294298 -0.3299,0 -0.43216,0.03638 -0.45196,0.06944 -0.22102,0.320752 0.46185,2.327927 0.68618,2.979356 l 0.22103,0.63819 -0.6367,-0.171948 c -0.39586,-0.105816 -0.99958,-0.158724 -1.39544,-0.158724 -0.59051,0 -0.59051,0.04964 -0.59051,0.363743 0,0.601823 0.44206,1.140809 0.9105,1.699649 0.50804,0.62166 1.03257,1.25985 1.03257,2.07331 0,0.71425 -0.47505,1.48141 -1.51751,1.48141 -0.94679,0 -1.51751,-0.59522 -1.97276,-1.07138 l -0.12866,-0.12896 c -0.52783,-0.54892 -1.5538,-1.18711 -2.68533,-1.18711 -1.14143,0 -1.14143,0 -1.14143,1.48472 0,1.75917 0.95669,3.96805 2.33564,5.37671 l 0.16825,0.17195 -0.099,0.22486 c -0.48824,1.14081 -0.66969,2.31801 -0.66969,2.83055 0,1.14081 0.0759,1.22678 1.18102,1.22678 1.40205,0 2.67874,-0.95563 3.70471,-1.72279 0.82143,-0.61836 1.46802,-1.09783 2.08822,-1.09783 0.87751,0 1.32947,0.70433 1.32947,1.40535 0,1.75256 -2.18389,3.50181 -6.16241,4.94684 -0.67627,0.27115 -2.34223,0.8366 -3.7146,1.36898 -1.65606,0.64482 -3.83006,1.9179 -4.77685,3.02234 l -0.26721,0.31745 -0.25732,-0.31745 c -0.90391,-1.06806 -2.31255,-1.97741 -4.57562,-2.92313 -0.6235,0.2976 -1.30967,0.60513 -2.52039,1.15074 1.43504,0.65803 2.28616,1.1871 2.28616,2.00055 0,1.22679 -0.98637,1.79886 -3.11418,1.79886 -2.12782,0 -3.1208,-0.57207 -3.1208,-1.79886 0,-0.97548 1.19422,-1.58722 2.88327,-2.35107 0,0 1.92988,-0.82999 2.66884,-1.19372 0.74226,-0.36374 1.70555,-0.93249 1.70555,-0.93249 1.02596,-0.5886 2.26966,-1.39875 3.78717,-2.9529 l 0.24742,-0.25131 0.24742,0.25131 c 1.29318,1.28631 2.43131,2.16921 3.79378,2.9529 l 0.82142,0.43979 c 0.88082,-0.38027 1.52411,-0.58199 2.02555,-0.75724 -3.19007,-1.30946 -5.8655,-3.24058 -6.89147,-4.96007 -1.06886,1.74264 -3.77398,3.6936 -6.95745,4.98983 -0.32329,0.1488 -2.62924,0.91926 -4.2919,1.63682 -2.30266,0.9821 -3.99831,2.1163 -4.9583,3.35632 l -0.26722,0.34721 -0.27711,-0.33067 c -1.01277,-1.20695 -2.55337,-2.30478 -4.56243,-3.27035 -0.54431,0.27115 -1.16451,0.56545 -2.23007,1.03831 1.32947,0.6382 2.1608,1.19703 2.1608,1.99064 0,0.82007 -0.54103,1.80216 -3.13068,1.80216 -2.58637,0 -3.1274,-0.9854 -3.1274,-1.80216 0,-0.95894 1.16123,-1.51447 3.05481,-2.34776 0,0 1.72535,-0.76055 2.53359,-1.13421 0.80824,-0.37696 1.67256,-0.89611 1.67256,-0.89611 1.01606,-0.5886 2.51048,-1.54093 3.76407,-3.03226 l 0.27052,-0.31745 0.26391,0.31745 c 1.2536,1.49133 2.74801,2.44696 3.76739,3.03226 l 0.84122,0.46954 c 0.98309,-0.42325 1.71875,-0.68118 2.25978,-0.86966 -3.70801,-1.41858 -5.74016,-3.09839 -5.74016,-4.78812 0,-0.70102 0.46186,-1.40536 1.33937,-1.40536 0.6202,0 1.2668,0.48279 2.08823,1.09783 1.02597,0.76716 2.30266,1.7228 3.7014,1.7228 1.10184,0 1.17772,-0.086 1.17772,-1.22679 0,-0.51254 -0.17485,-1.68973 -0.66638,-2.83054 l -0.0923,-0.22487 0.16494,-0.17195 c 1.37896,-1.41196 2.33895,-3.61754 2.33895,-5.37671 0,-1.48471 0,-1.48471 -1.14143,-1.48471 -1.13154,0 -2.1608,0.63819 -2.69193,1.1871 l -0.12536,0.12897 c -0.45855,0.47616 -1.02927,1.07137 -1.97936,1.07137 -1.03916,0 -1.51421,-0.76716 -1.51421,-1.48141 0,-0.81345 0.52783,-1.45495 1.03586,-2.0733 0.46515,-0.55884 0.90061,-1.09783 0.90061,-1.699653 0,-0.314141 0,-0.363743 -0.58391,-0.363743 -0.39257,0 -0.99628,0.05624 -1.38885,0.158724 l -0.63999,0.171948 0.21773,-0.63819 c 0.22103,-0.654735 0.9072,-2.66191 0.68617,-2.979355 -0.0198,-0.03307 -0.11545,-0.06944 -0.44864,-0.06944 -0.20454,0 -0.70598,0.08929 -1.17443,0.294298 l -0.37278,0.165335 -0.1023,-0.406726 c -0.21442,-0.863052 -1.12493,-2.036936 -2.12121,-2.423821 -0.99627,0.386885 -1.91008,1.560769 -2.12452,2.423821 l -0.1023,0.406726 -0.37607,-0.165335 c -0.46185,-0.205016 -0.97318,-0.294298 -1.17442,-0.294298 -0.32989,0 -0.42886,0.03638 -0.44536,0.06944 -0.22432,0.320751 0.45856,2.327927 0.68618,2.979355 l 0.22103,0.63819 -0.64329,-0.171948 c -0.38928,-0.105816 -0.99628,-0.158724 -1.38885,-0.158724 -0.58722,0 -0.58722,0.04964 -0.58722,0.363743 0,0.601823 0.43876,1.140813 0.89732,1.699653 0.51463,0.62166 1.03916,1.25985 1.03916,2.0733 0,0.71425 -0.47174,1.48141 -1.5142,1.48141 -0.9534,0 -1.51751,-0.59521 -1.98267,-1.07137 l -0.11876,-0.12897 c -0.53773,-0.54891 -1.56369,-1.1871 -2.68533,-1.1871 -1.14803,0 -1.14803,0 -1.14803,1.48471 0,1.75917 0.96329,3.96806 2.33564,5.37671 l 0.17155,0.17195 -0.0957,0.22487 c -0.48824,1.14081 -0.66968,2.318 -0.66968,2.83054 0,1.14082 0.0792,1.22679 1.17772,1.22679 1.40205,0 2.67214,-0.95564 3.7047,-1.7228 0.82144,-0.61835 1.47462,-1.09783 2.09482,-1.09783 0.87092,0 1.32947,0.70434 1.32947,1.40536 0,1.84514 -2.41482,3.68037 -6.7958,5.16839 0,0 -1.96287,0.67458 -3.0812,1.14743 -2.23998,0.93911 -3.88944,1.94766 -4.82965,3.08517 l -0.2738,0.32736 -0.26721,-0.32736 c -0.88412,-1.09453 -2.31255,-2.01709 -4.59541,-2.97605 -0.59382,0.29761 -1.22722,0.61174 -2.4775,1.17058 1.39874,0.64812 2.22677,1.1805 2.22677,1.9708 0,1.20695 -1.00617,1.79224 -3.06801,1.79224 -2.06512,0 -3.0647,-0.58529 -3.0647,-1.79224 0,-0.97217 1.17442,-1.5773 2.83048,-2.32462 0,0 1.89358,-0.83659 2.72492,-1.2334 0.82804,-0.40342 1.70555,-0.91927 1.70555,-0.91927 1.01937,-0.5886 2.26966,-1.39873 3.78058,-2.9529 l 0.25401,-0.2513 0.24412,0.2513 c 1.29649,1.28632 2.43132,2.16921 3.78717,2.9529 l 0.78186,0.4398 c 0.87422,-0.37036 1.5373,-0.59191 2.04863,-0.76716 -3.18677,-1.31277 -5.849,-3.23728 -6.86838,-4.95346 -1.07875,1.75917 -3.79377,3.71013 -6.99044,5.00967 -1.04246,0.43318 -2.18059,0.75724 -4.3117,1.63683 -2.14101,0.8895 -3.96531,2.11629 -4.9253,3.36293 l -0.26062,0.34389 -0.28371,-0.32736 c -0.98308,-1.17058 -2.56657,-2.26841 -4.67458,-3.26042 -0.54763,0.26784 -1.15793,0.55552 -2.22019,1.035 1.29648,0.62827 2.11462,1.17388 2.11462,1.96088 0,1.2268 -0.98638,1.79885 -3.101,1.79885 -2.10802,0 -3.0977,-0.57205 -3.0977,-1.79885 0,-0.93911 1.14143,-1.50125 3.02842,-2.33123 0,0 1.8837,-0.81346 2.41812,-1.07138 0.53772,-0.25792 1.81441,-0.97548 1.81441,-0.97548 1.01607,-0.5886 2.5105,-1.54093 3.76738,-3.03225 l 0.26392,-0.31745 0.26721,0.31745 c 1.2503,1.49132 2.74471,2.44696 3.76739,3.03225 l 0.88081,0.48278 c 0.97979,-0.42656 1.71544,-0.67457 2.26637,-0.86305 -3.741,-1.41858 -5.78303,-3.10832 -5.78303,-4.80466 0,-0.70102 0.45855,-1.40535 1.33606,-1.40535 0.6136,0 1.26679,0.48278 2.08823,1.09783 1.02597,0.76715 2.29606,1.72279 3.6981,1.72279 1.11174,0 1.18103,-0.086 1.18103,-1.22679 0,-0.51253 -0.17815,-1.68973 -0.66639,-2.83054 l -0.1023,-0.22486 0.17484,-0.17195 c 1.37896,-1.41196 2.33565,-3.61754 2.33565,-5.37672 0,-1.48471 0,-1.48471 -1.14803,-1.48471 -1.12493,0 -2.15091,0.6382 -2.68204,1.1871 l -0.12865,0.12897 c -0.45855,0.47616 -1.02597,1.07137 -1.97276,1.07137 -1.04576,0 -1.51752,-0.76716 -1.51752,-1.48141 0,-0.81344 0.52783,-1.45495 1.03587,-2.0733 0.45855,-0.55883 0.90391,-1.097828 0.90391,-1.699651 0,-0.314141 0,-0.363742 -0.58721,-0.363742 -0.39258,0 -0.99958,0.05623 -1.39215,0.158723 l -0.63669,0.171948 0.21442,-0.63819 c 0.22433,-0.654734 0.90721,-2.661909 0.68949,-2.979354 -0.0198,-0.03307 -0.11547,-0.06944 -0.44866,-0.06944 -0.20454,0 -0.71257,0.08928 -1.17772,0.294298 l -0.36948,0.165336 -0.1023,-0.406726 c -0.21773,-0.863053 -1.12824,-2.036937 -2.12452,-2.423822 -0.99627,0.386885 -1.90348,1.560769 -2.11791,2.423822 l -0.10556,0.406726 -0.37608,-0.165336 c -0.46185,-0.205016 -0.96989,-0.294298 -1.16782,-0.294298 -0.33649,0 -0.43546,0.03638 -0.46186,0.06944 -0.21772,0.320751 0.47175,2.327927 0.69938,2.979354 l 0.21773,0.63819 -0.6367,-0.171948 c -0.39586,-0.105816 -1.00287,-0.158723 -1.39544,-0.158723 -0.59052,0 -0.59052,0.04964 -0.59052,0.363742 0,0.601823 0.43877,1.140821 0.90721,1.699651 0.50475,0.62166 1.03916,1.25986 1.03916,2.0733 0,0.71425 -0.48164,1.48141 -1.5241,1.48141 -0.9468,0 -1.51421,-0.59521 -1.96946,-1.07137 l -0.13196,-0.12897 c -0.53772,-0.5489 -1.5571,-1.1871 -2.68533,-1.1871 -1.14473,0 -1.14473,0 -1.14473,1.48471 0,1.75918 0.96329,3.96806 2.33564,5.37672 l 0.17484,0.17195 -0.1023,0.22486 c -0.48824,1.14081 -0.66969,2.31801 -0.66969,2.83054 0,1.14082 0.0792,1.22679 1.18103,1.22679 1.39874,0 2.67543,-0.95564 3.7014,-1.72279 0.82143,-0.61836 1.47132,-1.09783 2.09152,-1.09783 0.87091,0 1.32947,0.70433 1.32947,1.40535 0,1.75256 -2.174,3.4952 -6.15581,4.94684 -0.67299,0.26454 -1.38885,0.43649 -3.18677,1.14082 l -0.57402,0.2414 c -2.29935,0.96225 -3.80367,1.91788 -4.73396,3.0091 l -0.26721,0.31414 -0.27052,-0.31744 c -0.91051,-1.0813 -2.34553,-1.99395 -4.6317,-2.95289 -0.57071,0.27114 -1.22391,0.57536 -2.38842,1.08459 1.42843,0.73078 2.23997,1.34915 2.23997,2.09976 0,0.86636 -1.01277,1.79886 -3.23625,1.79886 -2.27956,0 -3.0845,-0.92919 -3.0845,-1.79886 0,-1.08129 1.2041,-1.68311 3.04491,-2.47673 0,0 2.09812,-0.8862 2.54677,-1.10444 0.45196,-0.21824 1.66927,-0.89612 1.66927,-0.89612 1.07544,-0.62165 2.35873,-1.45164 3.77728,-2.94627 l 0.24741,-0.26454 0.25732,0.26122 c 1.51421,1.55416 2.76121,2.3643 3.78057,2.9529 l 0.88412,0.48278 c 0.88081,-0.37696 1.50431,-0.61504 2.01564,-0.79361 -3.17357,-1.32269 -5.85559,-3.25712 -6.92115,-4.96999 -1.06885,1.79885 -3.94223,3.82918 -7.32363,5.13864 -0.16824,0.0661 -2.1674,0.77046 -3.7146,1.40204 -2.33235,1.05484 -3.23956,2.10307 -3.23956,3.74651 0,2.14936 1.67586,3.30671 3.24946,3.30671 h 120.40444 c 1.57689,0 3.25274,-1.15735 3.25274,-3.30671 0,-1.61037 -0.87091,-2.65199 -3.10429,-3.68038 -0.54762,0.26454 -1.19751,0.54892 -2.18059,0.99863 1.41524,0.65142 2.31255,1.22017 2.31255,2.15267 0,1.2268 -0.98308,1.79886 -3.0911,1.79886 -2.15091,0 -3.23955,-0.60844 -3.23955,-1.79886 0,-0.87296 1.09854,-1.56738 2.99873,-2.47342 0,0 2.23337,-1.0383 2.7612,-1.28631 0.53113,-0.25131 1.92988,-0.93911 1.92988,-0.93911 3.15708,-1.63683 3.97522,-3.12154 3.97522,-7.20864 v -0.0464 c 0,0 3.62223,-14.195716 3.84655,-15.068689 -1.08865,0.122348 -1.93317,1.140816 -2.28616,1.798853 M 235.15999,112.05651 c 0,-0.57207 0.0726,-1.02839 0.96659,-1.26647 0.6004,-0.15872 1.34927,0.13888 2.29936,0.52246 1.17772,0.47617 2.64904,1.07138 4.0082,0.70763 0.55752,-0.1488 0.83133,-0.28107 0.9237,-0.43979 0.0923,-0.15211 0.0627,-0.45963 -0.0858,-1.05153 -0.12536,-0.49601 -0.59051,-1.59053 -1.34596,-2.56271 l -0.15506,-0.19179 0.12537,-0.21493 c 0.98638,-1.71619 1.36905,-4.10363 0.94019,-5.8099 -0.15505,-0.5919 -0.3101,-1.14082 -0.49814,-1.24994 -0.15505,-0.0959 -0.57072,0.003 -0.98308,0.11243 -1.08865,0.29429 -1.91998,1.17719 -2.30596,1.84514 l -0.0858,0.16203 c -0.32989,0.57538 -0.73237,1.29624 -1.64616,1.54093 -1.00948,0.26785 -1.65937,-0.35051 -1.83422,-1.03499 -0.20122,-0.79362 0.15176,-1.54424 0.48825,-2.27503 0.31669,-0.66795 0.607,-1.296226 0.45525,-1.884825 -0.0528,-0.201713 -0.0923,-0.247998 -0.10886,-0.254621 -0.0231,-0.01648 -0.13196,-0.05623 -0.55423,0.05953 -0.37937,0.09918 -0.94349,0.304212 -1.30307,0.512537 l -0.57402,0.333978 0.0495,-0.674567 c 0.0627,-0.69772 0.23092,-2.814018 -0.0627,-3.062021 -0.0297,-0.02645 -0.13526,-0.03307 -0.45525,0.0496 -0.19134,0.0463 -0.66309,0.27115 -1.05896,0.585288 l -0.32989,0.257924 -0.19794,-0.370353 c -0.34968,-0.658036 -1.19752,-1.673197 -2.28946,-1.798852 0.22103,0.872972 3.85645,15.068692 3.85645,15.068692 v 0.0464 c 0,4.0871 0.81154,5.57181 3.96532,7.20864 l 1.47462,0.73078 c 0.88411,-0.38689 1.52741,-0.63488 2.03214,-0.82337 -3.6915,-1.41527 -5.71045,-3.09509 -5.71045,-4.7782" />
      <path
         style="fill:#00529f;stroke:#000000;stroke-width:1"
         id="path4725"
         d="m 348.40246,108.01239 c -0.97649,0 -1.77153,0.81346 -1.77153,1.80878 0,0.99862 0.79504,1.80877 1.77153,1.80877 0.97648,0 1.77483,-0.81015 1.77483,-1.80877 0,-0.99532 -0.79835,-1.80878 -1.77483,-1.80878 z m -32.83428,0 c -0.97649,0 -1.77153,0.81346 -1.77153,1.80878 0,0.99862 0.79504,1.80877 1.77153,1.80877 0.97648,0 1.77482,-0.81015 1.77482,-1.80877 0,-0.99532 -0.79834,-1.80878 -1.77482,-1.80878 z m -32.67923,0 c -0.97978,0 -1.77153,0.81346 -1.77153,1.80878 0,0.99862 0.79175,1.80877 1.77153,1.80877 0.96989,0 1.76163,-0.81015 1.76163,-1.80877 0,-0.99532 -0.79174,-1.80878 -1.76163,-1.80878 z m -32.85407,0 c -0.97318,0 -1.77482,0.81346 -1.77482,1.80878 0,0.99862 0.80164,1.80877 1.77482,1.80877 0.97649,0 1.76163,-0.81015 1.76163,-1.80877 0,-0.99532 -0.78514,-1.80878 -1.76163,-1.80878 z" />
      <path
         style="fill:#00529f;stroke:#000000;stroke-width:1"
         d="m 240.77808,199.72081 c 0,37.4254 25.67889,62.33157 58.45048,62.33157 32.7584,0 58.4439,-24.90617 58.4439,-62.33157 l 1.75833,-72.86676 H 239.01644 Z"
         id="use9" />
      <path
         style="fill:#00529f;stroke-width:1"
         d="m 337.7502,188.49121 -2.1608,-1.26978 c -4.52943,-2.79416 -11.25266,-11.68593 -11.25266,-18.22661 0,-0.3935 0.0165,-0.78369 0.0363,-1.16066 h -4.48326 c -0.32329,1.12429 -0.90061,2.51642 -1.80451,3.71676 -0.52783,0.69771 -1.20412,2.49326 -1.20412,4.86748 0,0.38358 0.0231,0.77707 0.0593,1.18711 l 0.0726,0.7903 -0.76206,0.17195 c -1.10513,0.2447 -2.31584,0 -3.32202,-0.43318 0.0231,1.21356 0.58391,2.54948 1.02597,3.13146 l 0.40907,0.5423 -0.39918,0.55222 c -0.34308,0.47617 -0.78844,0.89612 -1.29977,1.24664 0.95009,1.04823 1.87379,1.87821 2.71172,2.44035 2.13771,1.41197 4.42057,2.72142 6.63085,3.97798 6.55828,3.73659 12.75698,7.27477 12.75698,12.89949 0,0.99532 -0.19464,1.85507 -0.54763,2.55279 0.88742,0.52907 1.77813,0.74731 3.1208,0.74731 4.9253,0 8.50465,-3.68699 8.50465,-8.7661 0,-4.34502 -4.11048,-6.69278 -8.09229,-8.96781"
         id="path12-0" />
      <path
         style="fill:#00529f;stroke-width:1"
         d="m 299.14609,148.43037 c -0.19794,-0.43649 -0.607,-1.00524 -0.97648,-1.35245 -0.82144,-0.77708 -1.83751,-1.19372 -2.57317,-1.35906 -0.13195,0.68779 -0.44866,1.45495 -1.01607,2.1163 -0.27711,0.33067 -0.48825,0.68119 -0.71257,0.84652 0.87752,-0.20832 1.83091,-0.36705 2.82059,-0.36705 0.82474,0 1.70884,0.0464 2.4577,0.11574"
         id="path14-7" />
      <path
         style="fill:#00529f;stroke-width:1"
         d="m 293.38285,152.35213 c 1.43834,0 1.99916,0.22816 3.1208,0.22816 0.76865,0 2.37523,-0.0429 2.89646,-1.16727 -0.96329,-0.1984 -2.01895,-0.2976 -3.15048,-0.2976 -1.41854,0 -2.49399,0.31413 -3.47048,0.63158 0.0693,0.27446 0.25732,0.47286 0.40577,0.60843 0.0693,0 0.13526,-0.003 0.19793,-0.003"
         id="path16-4" />
      <use
         height="100%"
         width="100%"
         y="0"
         x="0"
         style="stroke:#000000;stroke-width:1"
         id="use20"
         xlink:href="#c" />
      <use
         height="100%"
         width="100%"
         y="0"
         x="0"
         style="stroke:#000000;stroke-width:12.11085892"
         id="use22"
         xlink:href="#f" />
      <path
         style="fill:url(#pattern4712);stroke-width:1"
         d="m 294.34284,137.67693 c 0,0.57867 0.40908,1.20034 1.14803,1.20034 0.57072,0 1.05896,-0.63158 1.17772,-0.96226 -0.40576,-0.4431 -1.27009,-0.97216 -2.10801,-1.05484 -0.15175,0.1951 -0.21774,0.54892 -0.21774,0.81676 z m 27.5263,25.77254 c 0.87752,-6.77546 0.68288,-9.91684 0.18474,-11.0808 1.28658,-0.0727 2.37853,-0.25132 3.37481,-0.6878 -1.10844,-1.0813 -2.88657,-3.32655 -3.45398,-5.29736 -0.46845,-1.6236 -1.54721,-4.20283 -2.87668,-4.70214 0.88082,-0.28108 1.51092,-0.67127 2.27298,-1.75587 -2.27298,-1.07799 -3.25276,-2.44697 -5.53892,-3.61094 0.72247,-0.42326 1.35587,-1.18049 1.56699,-1.9708 -1.18761,-0.15872 -2.32244,-0.61174 -3.44738,-1.16396 -0.18143,0.89281 -0.49814,1.71288 -1.45483,2.77764 l -0.65649,-0.55884 c 0.59712,-0.6911 1.29319,-1.7757 1.29319,-2.64868 0,-1.21025 -0.97649,-2.40067 -1.64617,-2.79086 -0.72906,-0.41995 -1.38225,-0.35382 -2.90966,0.68779 -0.51134,0.36705 -1.70224,1.45827 -2.38513,2.04686 l -0.47834,-0.57206 c 0.66638,-0.64481 1.51421,-1.32599 1.92657,-1.6765 -0.44865,-0.0893 -0.80824,-0.10912 -1.09525,-0.10912 -1.28657,0 -2.54347,0.17195 -3.54965,0.95564 -6.42302,0 -9.73184,3.66053 -10.42792,5.39325 -2.46761,1.45495 -5.19582,3.67707 -5.19582,5.27421 0,0.41995 0.0593,0.68779 0.15176,0.87297 0.66308,-0.34059 1.30637,-0.90604 1.88368,-1.42188 l 0.39258,0.43979 c -0.49155,0.50262 -1.51421,1.30614 -1.94307,1.58391 -0.32001,0.42326 -0.39918,1.12098 -0.39918,1.7228 0,1.77901 1.8408,3.30672 3.75089,3.30672 2.72162,0 3.68491,-2.52633 3.52656,-3.6903 1.47792,-0.11905 5.67747,1.3756 5.67747,5.69086 0,2.69166 -2.94596,2.97604 -3.97522,2.97604 -1.03587,0 -1.80122,-0.32075 -2.93935,-0.32075 -1.14473,0 -1.66926,0.40673 -1.66926,1.17719 0,1.04161 1.20411,1.98073 2.51048,1.98073 1.28329,0 1.37896,-1.06147 2.40823,-1.06147 0.6037,0 1.63627,0.31745 1.63627,2.00388 0,1.67319 -1.75174,2.38083 -3.49357,2.38083 -4.0247,0 -6.7925,-2.93968 -7.96363,-2.93968 v 3.67707 c -3.72779,0 -4.96818,-1.04161 -6.51539,-2.46681 -1.27669,1.04162 -2.67873,3.04549 -2.67873,5.3172 0,1.574 0.13196,2.87023 0.44865,3.76965 -3.18677,0.45303 -6.46921,3.56795 -8.0329,7.21195 -0.99958,2.32131 -1.27008,3.55472 -3.31872,4.431 1.14803,2.84046 3.6981,4.2822 6.11292,4.37478 -1.52081,1.73273 -0.63339,5.53214 0.49154,5.69748 1.47462,-1.35576 3.04492,-1.65998 4.74386,-1.65998 3.91584,0 6.03045,1.39544 9.82753,1.39544 7.22795,0 11.83657,-2.46351 15.33014,-5.54206 1.59009,0.76385 3.91583,1.1772 5.00118,1.1772 2.13111,0 3.95542,-0.81015 4.88242,-2.09646 -0.73237,-0.97218 -1.63298,-3.35962 -0.99628,-5.10226 0.88082,0.71755 2.52698,1.24663 3.79707,0.96886 -0.27381,-2.95951 0.46845,-5.55527 1.32617,-6.69279 0.97649,-1.30285 1.59669,-2.97604 1.82431,-4.09371 h 3.55955 c -0.51793,-0.79361 -1.06886,-1.99726 -0.86102,-3.57786 z m -24.07231,-24.26468 c 0,0 -0.37608,-0.63819 -0.76865,-1.00854 -0.17155,0.46624 -0.84782,1.14743 -1.52741,1.14743 -0.98308,0 -1.60328,-0.89281 -1.60328,-1.69965 0,-0.37367 0.18474,-0.96557 0.47505,-1.29624 1.17112,0.10581 2.73481,0.75724 3.93563,2.45028 -0.003,-0.006 -0.51134,0.40672 -0.51134,0.40672 z m 49.99203,66.48811 c 3.66181,-4.5302 2.30595,-9.47043 2.30595,-11.74214 0,-3.32325 3.33852,-5.49246 3.33852,-8.23372 0,-0.75724 -0.0231,-1.40536 -0.38268,-2.09645 -1.52411,1.51447 -2.4478,1.3789 -3.80037,1.96087 -1.53401,0.66135 -2.96574,2.25188 -2.59296,4.04412 -2.1542,-1.5244 -5.53561,-3.47205 -5.53561,-6.61012 0,-4.50044 8.08569,-3.25712 8.08569,-8.04525 -0.80494,1.19704 -1.78472,1.74595 -3.19667,1.74595 -1.39874,0 -3.25934,-0.86305 -5.11664,-0.86305 -3.46388,0 -4.87253,2.45358 -4.87253,3.66715 0,1.21687 0.0198,2.19235 0.58061,3.19098 -2.60285,-0.94903 -4.68778,-3.46875 -4.68778,-6.81515 0,-9.94659 13.66748,-7.01353 15.36642,-13.90142 -4.82633,3.72998 -8.41886,0.48609 -12.90212,3.48527 0.22433,-1.17057 0.65649,-1.92781 1.69895,-2.8074 -2.81069,0.22486 -4.73396,0.87959 -7.19826,3.14469 1.87048,-5.90579 5.11334,-7.98572 9.72195,-8.68343 8.63001,-1.30615 12.68439,-6.90112 12.68439,-12.97886 0,-2.27832 -0.19464,-3.82917 -0.75875,-5.4726 -1.38226,3.59439 -5.03087,6.08435 -8.3694,7.1954 0.60371,-1.15735 1.03917,-2.80078 0.51793,-4.75175 -0.69277,0.35051 -2.34223,1.3756 -3.29892,1.8187 -2.02225,0.94902 -8.28362,3.46543 -7.19828,11.85787 -2.59295,2.27833 -6.99704,6.17364 -6.99704,14.32469 0,6.24308 6.5253,14.79424 10.82381,17.45284 4.3051,2.66191 10.68194,5.23453 10.68194,11.00805 0,5.6115 -4.00491,9.66884 -9.38547,9.66884 -1.80451,0 -2.99543,-0.33398 -4.33479,-1.39213 0.58061,-0.62166 0.88081,-1.61037 0.88081,-2.8041 0,-6.8482 -10.24318,-10.57156 -18.98865,-16.13345 -1.15793,-0.7341 -2.01565,-1.49464 -3.00203,-2.67183 -0.80824,0.45963 -2.35874,0.55883 -3.60903,0.55883 -1.08865,0 -2.7942,-0.35381 -4.52944,-0.96555 -3.29233,2.70489 -8.39248,5.39986 -15.61385,5.39986 -3.80367,0 -6.24157,-1.40866 -9.61308,-1.40866 -1.69566,0 -3.55296,0.4464 -4.76696,2.07331 -1.95297,-0.61835 -2.97564,-3.71344 -1.95297,-6.29599 -1.78802,-0.3968 -3.4144,-1.20363 -4.73727,-2.98265 -1.95956,1.2797 -4.89231,3.17775 -6.81559,3.67376 -1.91998,0.48609 -6.21519,2.72473 -7.33682,2.72473 -1.73195,0 -2.77771,-1.8187 -4.00821,-1.8187 -1.46473,0 -3.04162,1.75256 -3.04162,2.81071 0,1.25986 1.06885,2.4139 2.11791,2.89007 -2.68532,-0.0893 -3.54964,0.72417 -3.43748,2.37422 1.51421,0.2447 2.4676,2.29156 2.09483,3.54149 0.11545,0.31745 0.70267,0.6382 1.32617,0.45634 -0.19464,0.81675 -0.6565,2.54616 0.5773,3.55802 0.47835,-0.90604 1.11174,-1.21357 2.02555,-1.21357 0.90721,0 1.69235,0.86967 1.91008,1.49463 0.59711,-0.13557 1.26679,-0.71425 1.26679,-1.51447 0,-1.59383 0.79834,-2.65859 1.47462,-2.69827 0.21773,0.97548 1.05896,1.29292 1.75174,1.51447 -0.11217,-1.73602 1.04576,-2.28825 1.80451,-2.28825 1.20082,0 1.71875,0.52246 2.174,1.40535 0.69938,-0.26453 1.13484,-1.03499 1.10184,-1.90466 -0.0297,-0.86967 -0.16824,-1.2301 -0.63669,-1.64674 0.36618,-0.41665 2.22018,-1.33261 4.26882,-1.33261 3.04162,0 4.42057,1.035 6.38014,2.30477 0.6037,-0.41664 1.17112,-1.12097 1.24369,-2.18573 1.33277,-0.1488 2.32574,1.50125 3.58924,3.23728 0.77855,-0.43649 1.99586,-2.00388 1.80452,-3.39931 2.69852,0.20502 4.13356,0.94903 5.83911,2.00717 1.12823,-0.55222 1.5307,-1.86498 1.59339,-3.03225 6.12941,6.0116 12.08728,7.70134 19.82657,8.21718 5.90179,0.39351 9.33269,3.87548 9.84072,5.61811 -0.9204,-0.47947 -2.07503,-0.72748 -3.54965,-0.72748 -3.86635,0 -6.97724,4.74514 -6.97724,9.51342 0,3.37285 0.53773,6.26954 3.83006,9.83417 3.07131,3.29679 3.87955,3.70353 3.87955,6.93418 1.68575,-0.4894 2.14101,-1.32269 2.59625,-2.43043 0.0231,2.49326 1.15133,4.64594 2.84038,5.18162 0.91381,-1.74594 1.68906,-2.8041 2.77441,-3.4985 0.31009,7.0929 -6.57808,11.07418 -9.02918,11.07418 -1.96947,0 -2.10802,-1.10113 -3.7014,-1.10113 -1.57029,0 -3.41439,1.30946 -3.41439,3.14468 0,1.14413 0.71915,1.93443 1.49441,2.39075 -1.88039,0.99532 -2.10801,2.00388 -1.96946,3.396 2.34883,-0.47617 3.31212,1.73272 2.87996,3.17115 1.45153,0.31082 2.51049,-0.37036 3.25934,-1.04493 0.23094,0.71425 0.89732,1.39543 1.69566,1.61037 0.50144,-0.87297 1.28329,-1.50787 2.24328,-1.50787 0.96658,0 1.76822,0.37366 2.17399,1.7195 1.08865,-0.23809 2.38513,-2.25518 1.74844,-3.64731 1.10844,-0.30091 2.21357,-1.88483 2.26636,-2.97935 0.73897,0.96887 1.71215,1.7195 2.75461,1.24333 -0.10556,-1.86168 1.45813,-3.20751 2.50059,-3.20751 0.60701,0 1.10515,0.086 1.49442,0.28768 0.13526,-0.2447 0.24412,-0.5886 0.24412,-0.96226 0,-0.88289 -0.74226,-1.54754 -1.40534,-1.90797 2.00575,-1.28962 3.92572,-3.91184 4.49644,-5.61149 0.15835,1.10113 0.72247,1.96419 1.82761,2.19566 0.75875,-0.64151 1.02926,-1.17058 1.14473,-2.58585 2.08163,0.67787 4.21933,0.5423 4.96159,-0.75724 -0.55422,-0.47286 -1.11173,-1.28301 -1.11173,-2.34778 0,-2.75117 0.92369,-3.84239 0.92369,-6.34558 0,-2.5627 -1.81111,-4.65254 -4.10716,-4.65254 -1.51421,0 -2.82059,0.59852 -3.48698,1.35905 -2.87996,0 -5.84571,-3.18436 -5.84571,-6.67956 0,-3.32986 2.11462,-5.31388 4.6548,-6.52745 1.56369,0.68449 4.10387,1.46818 6.77601,1.46818 2.66553,0 4.72076,-0.78369 5.68735,-1.70296 0.36948,0.38358 1.18102,1.06807 2.29935,1.06807 1.93649,0 3.17029,-0.56544 4.14017,-1.7757 0.95669,-1.21026 1.72204,-2.40729 3.41769,-3.8391 -1.33276,-0.76055 -3.00202,-0.53569 -4.38097,0.51254 m -42.80036,-4.29873 c -0.56742,0.65142 -1.20082,1.20365 -1.78472,1.20365 -2.35214,0 -3.89934,-0.12235 -6.06014,-0.12235 -9.51743,0 -16.53425,5.98846 -16.53425,12.84328 0,4.1896 -0.17814,5.11218 -1.47793,6.54399 0.57072,0.44971 1.45154,0.73739 2.2004,0.70764 -1.2635,3.42244 -7.05643,4.5335 -8.45847,4.5335 -1.96617,0 -2.01895,-1.84846 -4.23913,-1.84846 -1.44163,0 -3.25934,0.66465 -3.25934,2.32793 0,0.75723 0.17814,1.58722 0.46515,2.05678 -0.80494,-0.44641 -1.70885,-0.55222 -2.4643,-0.55222 -1.33277,0 -2.81729,1.24001 -2.81729,2.94297 0,1.58392 1.02926,3.20752 2.27626,3.20752 0.72577,0 1.29648,-0.0562 1.89358,-0.21494 -1.11833,1.53432 -1.35915,2.93636 -0.17484,4.07718 0.22763,-0.55883 1.00948,-1.44504 2.53688,-1.44504 1.13813,0 2.36534,1.0813 2.08163,2.69497 1.25359,-0.30421 3.05811,-1.33591 2.71831,-4.50374 0.98309,0 2.02555,-0.28769 2.45772,-0.77707 0.23092,1.0383 0.85442,2.06669 2.09482,2.54616 0.33649,-0.63489 1.2338,-1.64343 2.29275,-1.64343 1.16453,0 1.71215,0.52245 2.04864,1.06806 0.60701,-0.8366 0.96329,-1.54423 0.45196,-3.04879 1.71214,-0.43979 5.43004,-1.80216 7.4226,-3.18106 l 0.87751,1.74926 c 1.42514,-0.55553 2.79089,-1.79886 3.56944,-3.01904 0.69937,0.95233 0.75546,1.87822 0.82474,3.06533 2.7744,-1.93112 5.51252,-4.44092 5.51252,-8.92813 0,-4.09372 -1.58349,-4.05403 -1.58349,-6.26953 0,-2.20227 2.00245,-5.21139 5.2321,-5.21139 0.72247,0 1.04906,0.0103 1.43174,0.0364 0.53773,-3.62416 2.87667,-7.00692 5.5356,-7.9791 -1.07214,-1.33261 -2.87996,-2.30478 -5.07045,-2.86031 m -35.22271,-28.08062 c 1.5703,-3.09508 4.40079,-6.26622 7.59414,-7.02676 -0.17154,-0.89612 -0.34638,-1.54093 -0.34638,-3.11163 0,-0.60843 0.18144,-1.58391 0.34968,-2.14275 -3.76078,-1.96088 -9.81102,-5.62803 -10.95245,-7.25823 -3.25605,-4.63271 -6.02055,-6.36212 -5.98426,-8.88515 0.0132,-1.04492 0.70927,-2.52632 0.70927,-3.84239 0,-1.31608 -1.60988,-1.90468 -2.62925,-1.90468 -1.18102,0 -2.41812,0.36705 -2.4775,1.46158 -0.0528,1.09783 0.38268,2.0733 0.53773,2.63876 0.20123,0.75723 0.10557,1.82861 -0.0231,2.66851 -1.07545,-1.17388 -2.12121,-2.53625 -2.12121,-3.73659 0,-1.23009 -1.06556,-2.12621 -2.29606,-2.07 -1.2338,0.0595 -3.19667,1.54424 -3.19667,2.98266 0,1.25654 0.93361,1.74594 1.79133,2.29816 0.55752,0.37035 1.17112,0.81345 1.52741,2.12953 -0.93691,-0.53239 -1.65278,-0.71425 -2.78101,-0.71425 -1.12823,0 -2.68204,0.53569 -2.68204,2.50649 0,2.47341 1.81442,3.42575 3.84986,3.70021 -0.15504,1.81208 1.43174,4.60955 4.24243,4.60955 0.6136,0 1.2272,-0.30751 1.50102,-0.71425 3.3847,4.61618 3.89604,8.09815 3.91253,10.81297 1.28328,0 2.43461,-0.33729 2.68533,-2.30148 1.25359,3.66385 1.07215,6.56713 0.0758,9.33485 1.34597,0.22155 3.29894,-0.42325 3.78718,-1.90466 1.25029,2.09976 1.35256,2.77764 1.38885,3.81595 0.81484,-1.11767 0.72907,-1.75587 1.5373,-3.3464 m 44.15952,30.79875 c -1.82762,-2.15269 -5.63129,-3.33318 -8.3661,-3.43238 -0.0104,0 0.0104,-0.0199 -0.0263,0.0199 3.27254,0.80352 4.64159,2.05346 5.5521,3.29348 1.30307,-0.20171 2.41152,-0.076 2.84038,0.11905"
         id="c" />
      <path
         style="fill:#efcf4d;fill-opacity:1;stroke:#000000;stroke-width:0.5;stroke-opacity:1"
         d="m 314.59169,252.05949 c -0.72906,0 -1.28328,0.51255 -1.79131,1.38551 0.54761,1.17389 0.92699,2.34116 0.97977,3.43899 1.31299,-0.82007 2.10473,-1.92451 2.33895,-3.05541 -0.0792,-0.82668 -0.56082,-1.76909 -1.52741,-1.76909 z"
         id="use25" />
      <path
         id="path5722"
         d="m 256.74491,136.35716 c -1.42184,0 -2.23338,0.56545 -2.68203,1.283 0.9105,0.50925 1.38884,0.91266 1.76163,1.52771 0.6004,-0.61505 1.41194,-0.85643 2.1443,-0.85643 0.6367,0 1.12494,0.0265 1.58679,0.16533 -0.49813,-1.32599 -1.34927,-2.11961 -2.81399,-2.11961 z"
         style="fill:#efcf4d;fill-opacity:1;stroke:#000000;stroke-width:0.5;stroke-opacity:1" />
      <path
         id="path5720"
         d="m 249.87984,138.01052 c -1.62968,0 -2.64246,1.40205 -2.8041,2.7611 0.75876,0.0364 1.2272,0.19511 1.70225,0.48609 0.6169,-0.83659 1.97606,-2.0204 3.59913,-1.9245 -0.57071,-0.94242 -1.40864,-1.32269 -2.49399,-1.32269 z"
         style="fill:#efcf4d;fill-opacity:1;stroke:#000000;stroke-width:0.5;stroke-opacity:1" />
      <path
         id="path5718"
         d="m 246.22132,148.11915 c -1.2437,0.25131 -2.35214,1.50455 -2.35214,3.19098 0,1.35575 0.72576,2.42052 1.25689,3.05871 0.3035,-1.29292 1.05565,-2.08985 1.74184,-2.4073 -0.65979,-0.89611 -1.11834,-2.26179 -0.64989,-3.84239 z"
         style="fill:#efcf4d;fill-opacity:1;stroke:#000000;stroke-width:0.5;stroke-opacity:1" />
      <path
         id="path5716"
         d="m 251.5293,156.95138 c -0.58062,0.49601 -0.89401,0.80354 -2.32905,1.09783 0.3101,0.56875 1.37236,1.85838 2.77441,1.85838 1.06885,0 2.27626,-0.56546 3.01192,-1.68312 -1.8672,0.0199 -2.75461,-0.64482 -3.45398,-1.27309 z"
         style="fill:#efcf4d;fill-opacity:1;stroke:#000000;stroke-width:0.5;stroke-opacity:1" />
      <path
         id="path5714"
         d="m 246.25101,184.61535 c -1.73525,0 -2.781,1.19042 -3.35171,2.53295 0.94679,-0.0463 1.62306,0.0959 2.14429,0.37035 0.0957,-0.81015 0.86762,-2.08984 2.36205,-2.7578 -0.25403,-0.0595 -0.65979,-0.1455 -1.15463,-0.1455 z"
         style="fill:#efcf4d;fill-opacity:1;stroke:#000000;stroke-width:0.5;stroke-opacity:1" />
      <path
         id="path5712"
         d="m 244.08691,193.8444 c -0.95999,0.3505 -1.42185,1.22348 -1.42185,2.11629 0,1.21026 0.67299,2.1659 1.67916,3.0488 0.32,-1.29955 1.04906,-1.8683 1.49442,-2.12622 0.3167,-0.92589 -0.26722,-2.81402 -1.75173,-3.03887 z"
         style="fill:#efcf4d;fill-opacity:1;stroke:#000000;stroke-width:0.5;stroke-opacity:1" />
      <path
         id="path5710"
         d="m 258.75726,196.68486 c -1.36905,0 -1.2602,1.39544 -1.21731,2.20227 0.16825,0.50262 0.65649,1.24664 1.10184,1.75587 1.39546,-0.98871 1.60659,-1.57069 1.80452,-2.43705 -0.3101,-1.00524 -0.88741,-1.52109 -1.69235,-1.52109 z"
         style="fill:#efcf4d;fill-opacity:1;stroke:#000000;stroke-width:0.5;stroke-opacity:1" />
      <path
         id="path5708"
         d="m 250.32518,200.32224 c -0.99627,0 -1.32287,0.84984 -1.44492,1.13752 -0.14186,1.24994 1.2173,2.61892 2.68202,2.55278 -0.0726,-0.78369 0.0726,-1.64343 0.30021,-2.23203 -0.29031,-0.86967 -0.82144,-1.45827 -1.53731,-1.45827 z"
         style="fill:#efcf4d;fill-opacity:1;stroke:#000000;stroke-width:0.5;stroke-opacity:1" />
      <path
         id="path5706"
         d="m 265.41781,224.16366 c -1.71215,0 -2.63585,1.49794 -2.76121,2.94298 0.50803,-0.0893 1.45482,-0.11243 1.97936,0.11243 -0.006,-1.33592 0.94349,-2.13284 2.23667,-2.63215 -0.24412,-0.1951 -0.67298,-0.42326 -1.45482,-0.42326 z"
         style="fill:#efcf4d;fill-opacity:1;stroke:#000000;stroke-width:0.5;stroke-opacity:1" />
      <path
         id="path5704"
         d="m 260.25167,230.291 c -0.94679,0.16533 -2.4643,1.25324 -2.4643,3.0984 0,1.35905 0.6103,2.35437 1.19751,3.06862 0.44866,-1.1342 1.05237,-1.54093 1.5868,-1.93112 -0.87753,-1.24001 -1.03258,-3.13146 -0.32001,-4.2359 z"
         style="fill:#efcf4d;fill-opacity:1;stroke:#000000;stroke-width:0.5;stroke-opacity:1" />
      <path
         id="path5702"
         d="m 278.83127,236.58368 c -1.05896,0 -1.73854,1.29953 -1.74184,1.28962 0.57731,0.58198 0.85112,1.11105 0.40247,2.3676 1.51091,-0.0429 3.15377,-1.18379 2.99873,-2.3676 0,0 -0.59051,-1.28962 -1.65936,-1.28962 z"
         style="fill:#efcf4d;fill-opacity:1;stroke:#000000;stroke-width:0.5;stroke-opacity:1" />
      <path
         id="path5700"
         d="m 266.965,238.29656 c -1.2338,0 -1.8507,1.01846 -1.97935,1.48802 -0.0231,1.12428 1.07874,2.28494 1.93647,2.75119 0.64988,-0.46956 1.18431,-1.35576 1.40205,-1.82861 0.32989,-0.85314 0.0297,-2.4106 -1.35917,-2.4106 z"
         style="fill:#efcf4d;fill-opacity:1;stroke:#000000;stroke-width:0.5;stroke-opacity:1" />
      <path
         id="path5698"
         d="m 305.15015,239.60933 c -2.26636,0 -3.25935,2.00717 -2.75131,4.66246 0.57402,-0.71095 1.16452,-0.96556 1.78142,-1.11767 -0.15504,-1.24994 0.87422,-2.80409 2.14431,-3.30671 -0.22763,-0.13889 -0.70927,-0.23808 -1.17442,-0.23808 z"
         style="fill:#efcf4d;fill-opacity:1;stroke:#000000;stroke-width:0.5;stroke-opacity:1" />
      <path
         id="path5696"
         d="m 326.07858,245.25388 c -0.6268,0 -1.82431,0.95895 -1.69236,2.63215 0.52124,0.24469 0.98968,0.63158 1.5571,1.96418 0.81154,-0.13557 2.23667,-1.4814 2.23667,-2.73795 0,-0.26454 -0.10885,-0.89943 -0.48493,-1.37559 -0.41567,-0.32406 -1.13154,-0.48279 -1.61648,-0.48279 z"
         style="fill:#efcf4d;fill-opacity:1;stroke:#000000;stroke-width:0.5;stroke-opacity:1" />
      <path
         id="path5694"
         d="m 305.02479,249.6948 c -0.28371,0 -0.68288,0.0562 -1.08205,0.20832 -0.53772,0.43649 -0.96988,1.04492 -0.96988,2.40729 0,1.07799 0.57401,2.07662 1.2404,2.37753 0.88411,-1.40866 1.8276,-2.07 2.30925,-2.32462 0.45524,-1.27309 -0.0923,-2.66852 -1.49772,-2.66852 z"
         style="fill:#efcf4d;fill-opacity:1;stroke:#000000;stroke-width:0.5;stroke-opacity:1" />
      <g
         transform="matrix(0.32989327,0,0,0.33067144,228.53904,92.335264)"
         id="f"
         style="stroke-width:3.02771473">
        <path
           style="fill:#ffffff;stroke-width:3.02771473"
           id="path33"
           d="m 194,181.78 c -0.41,-0.65 -0.66,-1.08 -0.82,-1.65 0,-0.01 -1.88,0.71 -1.88,0.69 -0.14,0.6 -0.31,1.33 0.08,2.51 0.58,-0.86 1.34,-1.28 2.62,-1.55 z M 189.59,173 c 0,0 2.23,-0.57 2.23,-0.59 0.04,-0.21 0.05,-0.7 0.05,-0.99 -1.05,0.33 -2.02,0.3 -2.89,0.26 0.14,0.45 0.43,1.1 0.61,1.32 z" />
        <path
           style="fill:#e10000;stroke-width:3.02771473"
           id="path35"
           d="m 206.54,171.6 c -5.91,0 -11.31,1.9 -15.41,3.1 -4.12,1.2 -6.42,2.13 -12.21,2.13 -11.34,0 -15.77,-5.67 -15.77,-10.23 0,-3 1.04,-5.41 3.04,-7.89 -0.94,-0.78 -2.23,-1.09 -3.47,-1.09 -3.9,0 -8.38,3.35 -8.38,10.1 0,10.34 9.44,15.13 18.74,15.13 8.52,0 16.64,-3.62 20.26,-4.93 3.62,-1.29 8.7,-2.48 11.86,-2.48 5.68,0 7.75,0.43 10.27,1.03 0.04,-0.27 0.1,-0.79 0.1,-1.23 0,-1.38 -0.19,-2.31 -0.43,-3.17 -1.76,-0.26 -3.82,-0.47 -8.6,-0.47 z" />
      </g>
    </g>
  </g>
</svg>
